<?xml version="1.0" encoding="UTF-8"?>
<svg version="1.1" xmlns="http://www.w3.org/2000/svg" width="228" height="186">
<path d="M0 0 C3.41501181 2.67530031 4.33386445 6.25162431 5.59375 10.23046875 C5.82654663 10.93972 6.05934326 11.64897125 6.29919434 12.37971497 C7.04135037 14.64629246 7.7710696 16.91663851 8.5 19.1875 C9.23144872 21.43961756 9.96546458 23.69087721 10.70080566 25.94172668 C11.15667416 27.3399686 11.60990445 28.73907463 12.05993652 30.13920593 C13.17028294 33.57288471 14.34686563 36.96403907 15.62866211 40.33789062 C17.67898847 45.81321471 17.67898847 45.81321471 17 49 C15.36536397 51.89588595 13.42502435 54.52560552 11.4375 57.1875 C10.33461435 58.70571387 9.23174968 60.22394297 8.12890625 61.7421875 C7.59152832 62.47276367 7.05415039 63.20333984 6.50048828 63.95605469 C4.59396741 66.55309223 2.72778086 69.1769094 0.875 71.8125 C0.35679687 72.54082031 -0.16140625 73.26914063 -0.6953125 74.01953125 C-1.97029576 75.95491002 -3.01174184 77.9058339 -4 80 C-4.66 80 -5.32 80 -6 80 C-7.41377341 82.63904371 -8.37240135 85.07120629 -9 88 C-7.948125 87.4121875 -7.948125 87.4121875 -6.875 86.8125 C-4 86 -4 86 -1.0625 87.5 C1.92384773 89.35669363 1.92384773 89.35669363 5.125 88.3125 C7.89417343 87.12846262 7.89417343 87.12846262 9.8828125 85.80078125 C12 85 12 85 14.359375 85.6796875 C15.14828125 86.07414062 15.9371875 86.46859375 16.75 86.875 C17.54921875 87.26429687 18.3484375 87.65359375 19.171875 88.0546875 C19.77515625 88.36664063 20.3784375 88.67859375 21 89 C21 89.99 21 90.98 21 92 C20.34298096 92.34466309 19.68596191 92.68932617 19.0090332 93.04443359 C11.81480822 96.88464991 4.98535137 101.1259606 -1.8125 105.625 C-2.80958984 106.27984375 -3.80667969 106.9346875 -4.83398438 107.609375 C-9.90763549 110.91965383 -9.90763549 110.91965383 -14.90087891 114.34838867 C-17.89572513 116.4713354 -18.91319015 116.99855317 -22.75 117.0625 C-27.00293447 116.27163173 -30.5420042 114.36509776 -34.33203125 112.34375 C-41.84754393 108.50793313 -41.84754393 108.50793313 -50 107 C-50 106.34 -50 105.68 -50 105 C-50.53367187 104.82984375 -51.06734375 104.6596875 -51.6171875 104.484375 C-57.5171171 102.56536676 -63.26304469 100.35945761 -69 98 C-68.67 96.68 -68.34 95.36 -68 94 C-63.94180817 94.65503282 -60.46028718 95.94559121 -56.6875 97.5625 C-55.61886719 98.01753906 -54.55023438 98.47257812 -53.44921875 98.94140625 C-52.23685547 99.46541016 -52.23685547 99.46541016 -51 100 C-52.485 99.01 -52.485 99.01 -54 98 C-54.99 97.34 -55.98 96.68 -57 96 C-57 95.34 -57 94.68 -57 94 C-53.19670633 92.73223544 -51.68257359 93.6190349 -48 95 C-46.515 95.495 -46.515 95.495 -45 96 C-45 95.01 -45 94.02 -45 93 C-42.16370769 93.50052217 -39.8097822 94.08398888 -37.16015625 95.25390625 C-33.98630597 96.35928864 -33.98630597 96.35928864 -31.25390625 94.62890625 C-30.36574219 93.94699219 -29.47757813 93.26507813 -28.5625 92.5625 C-22.66338126 88.43634045 -22.66338126 88.43634045 -18.8125 89.0625 C-17.4203125 89.5265625 -17.4203125 89.5265625 -16 90 C-16 90.66 -16 91.32 -16 92 C-15.34 91.67 -14.68 91.34 -14 91 C-14.37898438 90.43796875 -14.75796875 89.8759375 -15.1484375 89.296875 C-16 87 -16 87 -15.1015625 84.640625 C-14.37066406 83.45726563 -14.37066406 83.45726563 -13.625 82.25 C-13.14289063 81.45078125 -12.66078125 80.6515625 -12.1640625 79.828125 C-11.77992188 79.22484375 -11.39578125 78.6215625 -11 78 C-11.66 78 -12.32 78 -13 78 C-13.35338623 75.03155565 -13.5417682 72.84401782 -11.88671875 70.265625 C-10.64496832 68.79651181 -9.32662082 67.39295186 -8 66 C-9.32 66 -10.64 66 -12 66 C-11.45156876 62.16098132 -9.7234735 60.63836495 -7 58 C-5.72855876 54.18567629 -6.54492397 52.74255877 -7.875 49 C-8.24367187 47.948125 -8.61234375 46.89625 -8.9921875 45.8125 C-9.32476562 44.884375 -9.65734375 43.95625 -10 43 C-10.33 42.01 -10.66 41.02 -11 40 C-10.319375 39.46246094 -9.63875 38.92492187 -8.9375 38.37109375 C-6.6662404 36.14192277 -6.6662404 36.14192277 -7.1875 33.16015625 C-7.455625 32.13792969 -7.72375 31.11570312 -8 30.0625 C-9.19654285 24.36500816 -9.19654285 24.36500816 -7.25 20.75 C-5 19 -5 19 -3 19 C-3.22816406 18.48050781 -3.45632812 17.96101563 -3.69140625 17.42578125 C-5.88115584 12.11342909 -6.29196816 9.22992039 -4.125 3.8125 C-3 2 -3 2 0 0 Z M7 52 C7.33 52.66 7.66 53.32 8 54 C8.33 53.34 8.66 52.68 9 52 C8.34 52 7.68 52 7 52 Z M0 53 C1 55 1 55 1 55 Z M6 54 C6 57 6 57 6 57 Z M-1 55 C-1 58 -1 58 -1 58 Z M4 57 C2.68 58.65 1.36 60.3 0 62 C0.33 62.66 0.66 63.32 1 64 C2.32 62.35 3.64 60.7 5 59 C4.67 58.34 4.34 57.68 4 57 Z M-3 58 C-4.32 59.65 -5.64 61.3 -7 63 C-6.67 63.66 -6.34 64.32 -6 65 C-4.68 63.35 -3.36 61.7 -2 60 C-2.33 59.34 -2.66 58.68 -3 58 Z M-1 64 C-1.66 65.32 -2.32 66.64 -3 68 C-2.01 67.34 -1.02 66.68 0 66 C-0.33 65.34 -0.66 64.68 -1 64 Z M-4 68 C-6.97 71.96 -6.97 71.96 -10 76 C-9.01 76 -8.02 76 -7 76 C-4.78831775 73.05763218 -4.78831775 73.05763218 -3 70 C-3.33 69.34 -3.66 68.68 -4 68 Z M-44 97 C-42.19038423 98.62831762 -42.19038423 98.62831762 -40 100 C-39.01 99.67 -38.02 99.34 -37 99 C-39.64738916 97.5393715 -40.89448334 97 -44 97 Z M-48 100 C-48 100.66 -48 101.32 -48 102 C-38.1 105.96 -38.1 105.96 -28 110 C-27.67 109.34 -27.34 108.68 -27 108 C-30.31138908 106.6638956 -33.62429006 105.331582 -36.9375 104 C-37.88302734 103.6184375 -38.82855469 103.236875 -39.80273438 102.84375 C-40.70185547 102.4828125 -41.60097656 102.121875 -42.52734375 101.75 C-43.35999756 101.41484375 -44.19265137 101.0796875 -45.05053711 100.734375 C-46.8087676 99.94124617 -46.8087676 99.94124617 -48 100 Z M-37 100 C-34.8614515 102.1385485 -33.86724686 102.42655063 -31 103 C-31 102.34 -31 101.68 -31 101 C-33.97 100.505 -33.97 100.505 -37 100 Z " fill="#419DC4" transform="translate(162,32)"/>
<path d="M0 0 C-0.6171875 1.890625 -0.6171875 1.890625 -2 4 C-4.8203125 5.046875 -4.8203125 5.046875 -8.125 5.75 C-9.76855469 6.11351562 -9.76855469 6.11351562 -11.4453125 6.484375 C-12.28835937 6.65453125 -13.13140625 6.8246875 -14 7 C-12.68 7 -11.36 7 -10 7 C-10.24609375 8.890625 -10.24609375 8.890625 -11 11 C-12.84765625 12.046875 -12.84765625 12.046875 -15.0625 12.75 C-16.16271484 13.11351562 -16.16271484 13.11351562 -17.28515625 13.484375 C-17.85105469 13.65453125 -18.41695312 13.8246875 -19 14 C-19 14.99 -19 15.98 -19 17 C-20.29009643 17.50403768 -21.58213789 18.00309926 -22.875 18.5 C-23.95394531 18.91765625 -23.95394531 18.91765625 -25.0546875 19.34375 C-27 20 -27 20 -29 20 C-29.13277344 20.55558594 -29.26554687 21.11117187 -29.40234375 21.68359375 C-30.5185232 26.00970104 -31.66031501 30.16051693 -34 34 C-36.03017889 35.06719876 -37.90968221 35.53996198 -40.12890625 36.09375 C-42.19407327 36.86412953 -42.19407327 36.86412953 -43.08984375 39.09375 C-43.36957031 39.9084375 -43.64929688 40.723125 -43.9375 41.5625 C-44.80859375 44 -44.80859375 44 -46 46 C-48.3183392 46.8289034 -50.46690868 47.05852474 -52.90625 47.3515625 C-55.13753511 47.79837062 -55.13753511 47.79837062 -56.15625 49.7734375 C-56.71674207 51.21099587 -57.27405953 52.64979622 -57.828125 54.08984375 C-59.78120385 57.27336227 -62.70249895 57.72967715 -66.171875 58.625 C-66.77515625 58.74875 -67.3784375 58.8725 -68 59 C-68.66 58.34 -69.32 57.68 -70 57 C-66.70666411 47.98492896 -63.37070581 38.98642407 -60 30 C-59.64357422 29.04335449 -59.28714844 28.08670898 -58.91992188 27.10107422 C-58.0278391 24.72624174 -57.1134391 22.36179639 -56.1875 20 C-55.80839478 18.98015015 -55.80839478 18.98015015 -55.42163086 17.93969727 C-53.68924241 13.62472002 -52.09431384 12.0729986 -48 10 C-45.73988756 9.27955813 -43.45308359 8.64020311 -41.15234375 8.0625 C-40.49980118 7.8962915 -39.84725861 7.73008301 -39.17494202 7.55883789 C-37.09762827 7.03161991 -35.01771441 6.51563971 -32.9375 6 C-31.56817249 5.65438543 -30.19902995 5.30803714 -28.83007812 4.9609375 C-26.154182 4.28332267 -23.47617364 3.615171 -20.79638672 2.953125 C-18.35966274 2.34135841 -15.92825406 1.7077737 -13.50439453 1.046875 C-12.4523584 0.76328125 -11.40032227 0.4796875 -10.31640625 0.1875 C-9.4044751 -0.06644531 -8.49254395 -0.32039063 -7.55297852 -0.58203125 C-4.74172996 -1.04228348 -2.73612252 -0.72478434 0 0 Z M-42 13 C-37.99799622 14.60080151 -34.95443764 13.29279692 -31 12 C-35.00200378 10.39919849 -38.04556236 11.70720308 -42 13 Z M-26 14 C-22 15 -22 15 -22 15 Z " fill="#45BAEC" transform="translate(105,43)"/>
<path d="M0 0 C5.2103644 -0.02495201 10.42069305 -0.04297787 15.63110352 -0.05493164 C17.39901334 -0.05992164 19.16691911 -0.06671601 20.93481445 -0.07543945 C47.4663473 -0.20295884 47.4663473 -0.20295884 51.5 2.9609375 C51.995 3.75757813 52.49 4.55421875 53 5.375 C53.515625 6.16648437 54.03125 6.95796875 54.5625 7.7734375 C55.036875 8.50820313 55.51125 9.24296875 56 10 C56.51175781 10.50789063 57.02351563 11.01578125 57.55078125 11.5390625 C59.22700183 13.22883742 60.1087678 14.881479 61.1875 17 C63.82277534 21.92295302 67.04926272 26.277312 70.42578125 30.71484375 C72 33 72 33 72 35 C73.485 35.495 73.485 35.495 75 36 C76.203125 37.5234375 76.203125 37.5234375 77.25 39.375 C77.60578125 39.98085938 77.9615625 40.58671875 78.328125 41.2109375 C79 43 79 43 78 46 C76.68 46 75.36 46 74 46 C72.47265625 44.05859375 72.47265625 44.05859375 71.0625 41.4375 C68.61159653 37.05331389 65.98385851 33.03698505 63 29 C63.37253906 29.54269531 63.74507813 30.08539063 64.12890625 30.64453125 C64.60199219 31.35996094 65.07507813 32.07539062 65.5625 32.8125 C66.03816406 33.52019531 66.51382813 34.22789063 67.00390625 34.95703125 C68 37 68 37 67 40 C62.79373966 38.49776416 61.26099979 35.71449966 59 32 C57.68 32.66 56.36 33.32 55 34 C54.505 32.865625 54.01 31.73125 53.5 30.5625 C52.22676513 28.47372669 52.22676513 28.47372669 50 27 C46.49583652 26.49424445 43.23025338 26.28799463 39.70117188 26.35180664 C34.41421689 26.3809171 34.41421689 26.3809171 32.0078125 24.16796875 C31 22 31 22 31 19 C30.18015625 19.05800781 29.3603125 19.11601563 28.515625 19.17578125 C19.6504065 19.54693274 19.6504065 19.54693274 16.25 16.6875 C15 14 15 14 15 11 C14.02160156 11.12181641 14.02160156 11.12181641 13.0234375 11.24609375 C6.07405676 11.74833513 6.07405676 11.74833513 2.96484375 9.58203125 C1.31229167 7.74976902 0.01269325 6.25450261 -1 4 C-0.55395508 1.87988281 -0.55395508 1.87988281 0 0 Z M52 14 C52.66 15.32 53.32 16.64 54 18 C54 17.01 54 16.02 54 15 C53.34 14.67 52.68 14.34 52 14 Z M55 18 C56.3937282 22.43458973 58.60582235 24.87378374 62 28 C60.6062718 23.56541027 58.39417765 21.12621626 55 18 Z M49 19 C49.66 19.66 50.32 20.32 51 21 C51 20.34 51 19.68 51 19 C50.34 19 49.68 19 49 19 Z M51 21 C51.33 21.99 51.66 22.98 52 24 C52 23.01 52 22.02 52 21 C51.67 21 51.34 21 51 21 Z M53 24 C53.66 25.32 54.32 26.64 55 28 C55 27.01 55 26.02 55 25 C54.34 24.67 53.68 24.34 53 24 Z M56 28 C56.33 28.99 56.66 29.98 57 31 C57 30.01 57 29.02 57 28 C56.67 28 56.34 28 56 28 Z " fill="#185B76" transform="translate(76,22)"/>
<path d="M0 0 C0.99 0.33 1.98 0.66 3 1 C4.01466015 3.72307331 4.17209858 6.44197161 4.31640625 9.328125 C4.35830078 10.12734375 4.40019531 10.9265625 4.44335938 11.75 C4.48267578 12.575 4.52199219 13.4 4.5625 14.25 C4.60568359 15.09046875 4.64886719 15.9309375 4.69335938 16.796875 C4.79908543 18.86440671 4.90001295 20.93218281 5 23 C5 19.04 5 15.08 5 11 C6.32 11.33 7.64 11.66 9 12 C9.33 15.3 9.66 18.6 10 22 C10.99 21.67 11.98 21.34 13 21 C13.13277344 21.68707031 13.26554687 22.37414062 13.40234375 23.08203125 C13.57894531 23.98308594 13.75554687 24.88414063 13.9375 25.8125 C14.11152344 26.70582031 14.28554687 27.59914063 14.46484375 28.51953125 C15.26583097 32.70749241 15.26583097 32.70749241 18.25 35.53515625 C19.1575 36.03917969 20.065 36.54320312 21 37.0625 C25.89852217 39.79704433 25.89852217 39.79704433 27 42 C26.7834375 43.36125 26.7834375 43.36125 26.5625 44.75 C26.65733272 48.02047854 26.65733272 48.02047854 28.7421875 49.65625 C30.18810246 50.70595339 31.65840507 51.72297476 33.15234375 52.703125 C35 54 35 54 36 56 C36.04166002 58.3329614 36.04166002 60.6670386 36 63 C36 63.66 36 64.32 36 65 C37.4540625 65.680625 37.4540625 65.680625 38.9375 66.375 C42 68 42 68 43 70 C43.07033769 71.87379605 43.0843022 73.75001102 43.0625 75.625 C43.05347656 76.62789063 43.04445312 77.63078125 43.03515625 78.6640625 C43.02355469 79.43492187 43.01195312 80.20578125 43 81 C36.25095126 77.49262034 29.80941274 73.71518037 23.54296875 69.40234375 C20.75737968 67.48554795 17.91372811 65.67793114 15.05078125 63.87890625 C13.30440263 62.75304593 11.55830928 61.62674297 9.8125 60.5 C8.96171875 59.97849365 8.1109375 59.4569873 7.234375 58.91967773 C6.44160156 58.39962158 5.64882812 57.87956543 4.83203125 57.34375 C4.11764893 56.89193359 3.4032666 56.44011719 2.66723633 55.97460938 C0.13432057 52.97472321 0.17928516 49.77181416 0 46 C-0.03963364 45.19414459 -0.07926727 44.38828918 -0.12010193 43.55801392 C-0.22646638 40.84211614 -0.29417464 38.12751956 -0.3515625 35.41015625 C-0.37471527 34.42502548 -0.39786804 33.43989471 -0.42172241 32.4249115 C-0.46907207 30.35843425 -0.51433831 28.29190831 -0.55761719 26.2253418 C-0.62531278 23.0478185 -0.70291357 19.87063617 -0.78125 16.69335938 C-0.82611546 14.68230484 -0.87040702 12.67123741 -0.9140625 10.66015625 C-0.93796051 9.7060939 -0.96185852 8.75203156 -0.98648071 7.76905823 C-1.0033493 6.89402145 -1.0202179 6.01898468 -1.03759766 5.11743164 C-1.05456696 4.34436172 -1.07153625 3.57129181 -1.08901978 2.77479553 C-1 1 -1 1 0 0 Z M4 31 C3.91666643 35.8333472 4.04738513 40.23692563 5 45 C5.33 45 5.66 45 6 45 C6.05389087 43.04196493 6.09274217 41.08351091 6.125 39.125 C6.14820312 38.03445312 6.17140625 36.94390625 6.1953125 35.8203125 C6.30060534 32.8628949 6.30060534 32.8628949 4 31 Z M9 32 C9 33.65 9 35.3 9 37 C9.99 37.495 9.99 37.495 11 38 C10.67 36.02 10.34 34.04 10 32 C9.67 32 9.34 32 9 32 Z " fill="#0A4762" transform="translate(64,80)"/>
<path d="M0 0 C3.41501181 2.67530031 4.33386445 6.25162431 5.59375 10.23046875 C5.82654663 10.93972 6.05934326 11.64897125 6.29919434 12.37971497 C7.04135037 14.64629246 7.7710696 16.91663851 8.5 19.1875 C9.23144872 21.43961756 9.96546458 23.69087721 10.70080566 25.94172668 C11.15667416 27.3399686 11.60990445 28.73907463 12.05993652 30.13920593 C13.17028294 33.57288471 14.34686563 36.96403907 15.62866211 40.33789062 C17.67898847 45.81321471 17.67898847 45.81321471 17 49 C15.36536397 51.89588595 13.42502435 54.52560552 11.4375 57.1875 C10.33461435 58.70571387 9.23174968 60.22394297 8.12890625 61.7421875 C7.59152832 62.47276367 7.05415039 63.20333984 6.50048828 63.95605469 C4.59396741 66.55309223 2.72778086 69.1769094 0.875 71.8125 C0.35679687 72.54082031 -0.16140625 73.26914063 -0.6953125 74.01953125 C-1.97029576 75.95491002 -3.01174184 77.9058339 -4 80 C-5.32 80 -6.64 80 -8 80 C-8 80.66 -8 81.32 -8 82 C-8.66 82 -9.32 82 -10 82 C-10.25 79.75 -10.25 79.75 -10 77 C-8.7169291 75.61823134 -7.36886951 74.29682374 -6 73 C-3.90713595 70.05978124 -1.94746265 67.03804173 0 64 C-0.99 64 -1.98 64 -3 64 C-2.34 61.36 -1.68 58.72 -1 56 C-1.45890625 56.721875 -1.9178125 57.44375 -2.390625 58.1875 C-3.00421875 59.115625 -3.6178125 60.04375 -4.25 61 C-4.85328125 61.928125 -5.4565625 62.85625 -6.078125 63.8125 C-6.71234375 64.534375 -7.3465625 65.25625 -8 66 C-9.32 66 -10.64 66 -12 66 C-11.45156876 62.16098132 -9.7234735 60.63836495 -7 58 C-5.72855876 54.18567629 -6.54492397 52.74255877 -7.875 49 C-8.24367187 47.948125 -8.61234375 46.89625 -8.9921875 45.8125 C-9.49105469 44.4203125 -9.49105469 44.4203125 -10 43 C-10.495 41.515 -10.495 41.515 -11 40 C-10.319375 39.46246094 -9.63875 38.92492187 -8.9375 38.37109375 C-6.6662404 36.14192277 -6.6662404 36.14192277 -7.1875 33.16015625 C-7.455625 32.13792969 -7.72375 31.11570312 -8 30.0625 C-9.19654285 24.36500816 -9.19654285 24.36500816 -7.25 20.75 C-5 19 -5 19 -3 19 C-3.34224609 18.22076172 -3.34224609 18.22076172 -3.69140625 17.42578125 C-5.88115584 12.11342909 -6.29196816 9.22992039 -4.125 3.8125 C-3 2 -3 2 0 0 Z M7 52 C7.33 52.66 7.66 53.32 8 54 C8.33 53.34 8.66 52.68 9 52 C8.34 52 7.68 52 7 52 Z M0 53 C1 55 1 55 1 55 Z M6 54 C6 57 6 57 6 57 Z M4 57 C2.68 58.65 1.36 60.3 0 62 C0.33 62.66 0.66 63.32 1 64 C2.32 62.35 3.64 60.7 5 59 C4.67 58.34 4.34 57.68 4 57 Z " fill="#56ADCC" transform="translate(162,32)"/>
<path d="M0 0 C3.65261073 3.98143456 6.39202936 8.19871161 6.625 13.6875 C6.24064069 18.93125912 3.84645303 22.15354697 0.1875 25.8125 C-5.80665583 29.06647031 -13.75797542 28.15094912 -20.375 28.125 C-21.88900391 28.13080078 -21.88900391 28.13080078 -23.43359375 28.13671875 C-24.39136719 28.13542969 -25.34914063 28.13414063 -26.3359375 28.1328125 C-27.20782715 28.13168457 -28.0797168 28.13055664 -28.97802734 28.12939453 C-31 28 -31 28 -32 27 C-33.35580603 17.74369465 -33.1065413 8.32828252 -33 -1 C-9.06217617 -3.02072539 -9.06217617 -3.02072539 0 0 Z M-22 10 C-22 12.31 -22 14.62 -22 17 C-19.35409986 17.02684679 -16.70846904 17.04676357 -14.0625 17.0625 C-13.30775391 17.07087891 -12.55300781 17.07925781 -11.77539062 17.08789062 C-9.85005687 17.09652441 -7.92464419 17.05224333 -6 17 C-4.71677453 15.9404123 -4.71677453 15.9404123 -4.875 13.5 C-4.71677453 11.0595877 -4.71677453 11.0595877 -6 10 C-8.69654854 9.92680379 -11.36691458 9.90757463 -14.0625 9.9375 C-15.20041992 9.94426758 -15.20041992 9.94426758 -16.36132812 9.95117188 C-18.24091871 9.9629932 -20.12046899 9.98092922 -22 10 Z " fill="#253B4A" transform="translate(129,73)"/>
<path d="M0 0 C3.15143994 2.57845086 4.07118488 5.07039756 5 9 C5.37719757 14.71454312 5.16855573 20.3909325 4 26 C3.34 26.66 2.68 27.32 2 28 C2.19890456 30.23344065 2.19890456 30.23344065 2.875 32.625 C3.07867187 33.44226563 3.28234375 34.25953125 3.4921875 35.1015625 C3.65976563 35.72804687 3.82734375 36.35453125 4 37 C3.67 36.34 3.34 35.68 3 35 C1.35 36.32 -0.3 37.64 -2 39 C-1.08874558 43.12462527 0.539286 46.87003119 2.16015625 50.7578125 C3 53 3 53 3 55 C2.4121875 55.06058594 1.824375 55.12117188 1.21875 55.18359375 C-2.68222408 56.61898738 -4.11305521 60.43547356 -6.21875 63.84765625 C-6.8065625 64.55792969 -7.394375 65.26820312 -8 66 C-9.32 66 -10.64 66 -12 66 C-11.45156876 62.16098132 -9.7234735 60.63836495 -7 58 C-5.72855876 54.18567629 -6.54492397 52.74255877 -7.875 49 C-8.24367187 47.948125 -8.61234375 46.89625 -8.9921875 45.8125 C-9.49105469 44.4203125 -9.49105469 44.4203125 -10 43 C-10.495 41.515 -10.495 41.515 -11 40 C-10.319375 39.46246094 -9.63875 38.92492187 -8.9375 38.37109375 C-6.6662404 36.14192277 -6.6662404 36.14192277 -7.1875 33.16015625 C-7.455625 32.13792969 -7.72375 31.11570312 -8 30.0625 C-9.19654285 24.36500816 -9.19654285 24.36500816 -7.25 20.75 C-5 19 -5 19 -3 19 C-3.34224609 18.22076172 -3.34224609 18.22076172 -3.69140625 17.42578125 C-5.88115584 12.11342909 -6.29196816 9.22992039 -4.125 3.8125 C-3 2 -3 2 0 0 Z " fill="#42A0C3" transform="translate(162,32)"/>
<path d="M0 0 C0.99 0.33 1.98 0.66 3 1 C4.01466015 3.72307331 4.17209858 6.44197161 4.31640625 9.328125 C4.35830078 10.12734375 4.40019531 10.9265625 4.44335938 11.75 C4.48267578 12.575 4.52199219 13.4 4.5625 14.25 C4.60568359 15.09046875 4.64886719 15.9309375 4.69335938 16.796875 C4.79908543 18.86440671 4.90001295 20.93218281 5 23 C5 19.04 5 15.08 5 11 C6.32 11.33 7.64 11.66 9 12 C9.33 15.3 9.66 18.6 10 22 C10.99 21.67 11.98 21.34 13 21 C13.41846009 22.57750424 13.80896389 24.16244248 14.1875 25.75 C14.40792969 26.63171875 14.62835938 27.5134375 14.85546875 28.421875 C15 31 15 31 13.67578125 33.328125 C12 35 12 35 10 35 C10.08378906 35.58007812 10.16757813 36.16015625 10.25390625 36.7578125 C10.86502277 41.4456177 11.00086367 45.32930287 10 50 C10 50.99 10 51.98 10 53 C10 54.66666667 10 56.33333333 10 58 C8.50739711 57.54166537 7.03068347 57.03138622 5.5625 56.5 C4.73878906 56.2215625 3.91507812 55.943125 3.06640625 55.65625 C1 54 1 54 0.39282227 50.55834961 C-0.11698065 45.51816841 -0.24465433 40.47234771 -0.3515625 35.41015625 C-0.37471527 34.42502548 -0.39786804 33.43989471 -0.42172241 32.4249115 C-0.46907207 30.35843425 -0.51433831 28.29190831 -0.55761719 26.2253418 C-0.62531278 23.0478185 -0.70291357 19.87063617 -0.78125 16.69335938 C-0.82611546 14.68230484 -0.87040702 12.67123741 -0.9140625 10.66015625 C-0.93796051 9.7060939 -0.96185852 8.75203156 -0.98648071 7.76905823 C-1.0033493 6.89402145 -1.0202179 6.01898468 -1.03759766 5.11743164 C-1.05456696 4.34436172 -1.07153625 3.57129181 -1.08901978 2.77479553 C-1 1 -1 1 0 0 Z M4 31 C3.91666643 35.8333472 4.04738513 40.23692563 5 45 C5.33 45 5.66 45 6 45 C6.05389087 43.04196493 6.09274217 41.08351091 6.125 39.125 C6.14820312 38.03445312 6.17140625 36.94390625 6.1953125 35.8203125 C6.30060534 32.8628949 6.30060534 32.8628949 4 31 Z " fill="#3B8FB4" transform="translate(64,80)"/>
<path d="M0 0 C1.8203125 1.1875 1.8203125 1.1875 2.43408203 3.26171875 C2.62526611 4.21498047 2.62526611 4.21498047 2.8203125 5.1875 C2.15169189 5.53506348 1.48307129 5.88262695 0.79418945 6.24072266 C-7.13114118 10.44921775 -14.41682256 15.31166887 -21.72460938 20.50390625 C-22.60310547 21.10847656 -23.48160156 21.71304688 -24.38671875 22.3359375 C-25.1650708 22.88427246 -25.94342285 23.43260742 -26.74536133 23.99755859 C-29.71513248 25.44923491 -31.91535085 25.40293855 -35.1796875 25.1875 C-35.5096875 26.1775 -35.8396875 27.1675 -36.1796875 28.1875 C-37.1696875 27.8575 -38.1596875 27.5275 -39.1796875 27.1875 C-37.8046875 25.1875 -37.8046875 25.1875 -36.1796875 23.1875 C-35.5196875 23.1875 -34.8596875 23.1875 -34.1796875 23.1875 C-34.1178125 22.094375 -34.0559375 21.00125 -33.9921875 19.875 C-33.1796875 16.1875 -33.1796875 16.1875 -30.7421875 14.25 C-28.1796875 13.1875 -28.1796875 13.1875 -26.1796875 13.1875 C-25.5196875 11.5375 -24.8596875 9.8875 -24.1796875 8.1875 C-24.8396875 8.1875 -25.4996875 8.1875 -26.1796875 8.1875 C-26.1796875 8.8475 -26.1796875 9.5075 -26.1796875 10.1875 C-27.1696875 9.8575 -28.1596875 9.5275 -29.1796875 9.1875 C-29.5096875 8.1975 -29.8396875 7.2075 -30.1796875 6.1875 C-26.35106398 1.4017206 -26.35106398 1.4017206 -23.171875 0.8203125 C-19.95054871 0.80842569 -17.23633276 1.16861825 -14.1796875 2.1875 C-13.1484375 1.48625 -12.1171875 0.785 -11.0546875 0.0625 C-6.97299916 -2.46675132 -4.34516274 -1.53185398 0 0 Z " fill="#65B9D9" transform="translate(180.1796875,118.8125)"/>
<path d="M0 0 C0.66 0.33 1.32 0.66 2 1 C2.495 2.485 2.495 2.485 3 4 C1.68 5.32 0.36 6.64 -1 8 C-0.34 9.32 0.32 10.64 1 12 C0.34 12 -0.32 12 -1 12 C-1.33 13.32 -1.66 14.64 -2 16 C-0.02 15.67 1.96 15.34 4 15 C3.690625 15.598125 3.38125 16.19625 3.0625 16.8125 C1.89790296 19.08956772 1.89790296 19.08956772 1 22 C0.01 22 -0.98 22 -2 22 C-2.99 22.495 -2.99 22.495 -4 23 C-5.84765625 22.47094727 -5.84765625 22.47094727 -8.0625 21.56640625 C-8.85914063 21.24736328 -9.65578125 20.92832031 -10.4765625 20.59960938 C-11.30929688 20.25736328 -12.14203125 19.91511719 -13 19.5625 C-14.64464512 18.8942038 -16.29042839 18.22869961 -17.9375 17.56640625 C-18.66839844 17.26677979 -19.39929688 16.96715332 -20.15234375 16.65844727 C-21.98707827 15.88810341 -21.98707827 15.88810341 -24 16 C-24 15.34 -24 14.68 -24 14 C-24.53367187 13.82984375 -25.06734375 13.6596875 -25.6171875 13.484375 C-31.5171171 11.56536676 -37.26304469 9.35945761 -43 7 C-42.67 5.68 -42.34 4.36 -42 3 C-37.94180817 3.65503282 -34.46028718 4.94559121 -30.6875 6.5625 C-29.61886719 7.01753906 -28.55023438 7.47257813 -27.44921875 7.94140625 C-26.64097656 8.29074219 -25.83273438 8.64007813 -25 9 C-25.99 8.34 -26.98 7.68 -28 7 C-28.99 6.34 -29.98 5.68 -31 5 C-31 4.34 -31 3.68 -31 3 C-27.19670633 1.73223544 -25.68257359 2.6190349 -22 4 C-21.01 4.33 -20.02 4.66 -19 5 C-19 4.01 -19 3.02 -19 2 C-16.10497532 2.51088671 -13.84994212 3.07336163 -11.1875 4.375 C-7.39743433 5.11815013 -6.86042136 4.60424133 -3.75 2.5625 C-3.08484375 2.06878906 -2.4196875 1.57507813 -1.734375 1.06640625 C-0.87585938 0.53853516 -0.87585938 0.53853516 0 0 Z M-18 6 C-16.19038423 7.62831762 -16.19038423 7.62831762 -14 9 C-13.01 8.67 -12.02 8.34 -11 8 C-13.64738916 6.5393715 -14.89448334 6 -18 6 Z M-22 9 C-22 9.66 -22 10.32 -22 11 C-12.1 14.96 -12.1 14.96 -2 19 C-1.67 18.34 -1.34 17.68 -1 17 C-4.31138908 15.6638956 -7.62429006 14.331582 -10.9375 13 C-11.88302734 12.6184375 -12.82855469 12.236875 -13.80273438 11.84375 C-14.70185547 11.4828125 -15.60097656 11.121875 -16.52734375 10.75 C-17.35999756 10.41484375 -18.19265137 10.0796875 -19.05053711 9.734375 C-20.8087676 8.94124617 -20.8087676 8.94124617 -22 9 Z M-11 9 C-8.8614515 11.1385485 -7.86724686 11.42655063 -5 12 C-5 11.34 -5 10.68 -5 10 C-7.97 9.505 -7.97 9.505 -11 9 Z " fill="#2F8EB2" transform="translate(136,123)"/>
<path d="M0 0 C3 0 3 0 4.55078125 1.25 C6.07600792 3.09178314 7.10317579 4.87049687 8.1875 7 C10.82277534 11.92295302 14.04926272 16.277312 17.42578125 20.71484375 C19 23 19 23 19 25 C19.99 25.33 20.98 25.66 22 26 C23.203125 27.5234375 23.203125 27.5234375 24.25 29.375 C24.60578125 29.98085938 24.9615625 30.58671875 25.328125 31.2109375 C26 33 26 33 25 36 C23.68 36 22.36 36 21 36 C19.47265625 34.05859375 19.47265625 34.05859375 18.0625 31.4375 C15.61159653 27.05331389 12.98385851 23.03698505 10 19 C10.37253906 19.54269531 10.74507812 20.08539063 11.12890625 20.64453125 C11.83853516 21.71767578 11.83853516 21.71767578 12.5625 22.8125 C13.03816406 23.52019531 13.51382813 24.22789063 14.00390625 24.95703125 C15 27 15 27 14 30 C9.79373966 28.49776416 8.26099979 25.71449966 6 22 C4.02 22.99 4.02 22.99 2 24 C1.505 22.865625 1.01 21.73125 0.5 20.5625 C-0.76771984 18.47892207 -0.76771984 18.47892207 -3 17 C-7.24583383 16.32101038 -11.29087075 16.18438929 -15.578125 16.16796875 C-16.70734375 16.11253906 -17.8365625 16.05710937 -19 16 C-19.33 15.34 -19.66 14.68 -20 14 C-16.83754459 12.9458482 -14.13051782 12.68724328 -10.8125 12.4375 C-7.9353125 12.2209375 -7.9353125 12.2209375 -5 12 C-9.95 11.67 -14.9 11.34 -20 11 C-20 10.67 -20 10.34 -20 10 C-15.38 9.67 -10.76 9.34 -6 9 C-9.96 8.67 -13.92 8.34 -18 8 C-18 7.67 -18 7.34 -18 7 C-15.7089095 6.80558632 -13.41709663 6.61966865 -11.125 6.4375 C-9.21074219 6.28087891 -9.21074219 6.28087891 -7.2578125 6.12109375 C-4 6 -4 6 -2 7 C-1.855625 6.030625 -1.71125 5.06125 -1.5625 4.0625 C-1 1 -1 1 0 0 Z M-1 4 C-0.34 5.32 0.32 6.64 1 8 C1 7.01 1 6.02 1 5 C0.34 4.67 -0.32 4.34 -1 4 Z M2 8 C3.3937282 12.43458973 5.60582235 14.87378374 9 18 C7.6062718 13.56541027 5.39417765 11.12621626 2 8 Z M-4 9 C-3.34 9.66 -2.68 10.32 -2 11 C-2 10.34 -2 9.68 -2 9 C-2.66 9 -3.32 9 -4 9 Z M-2 11 C-1.67 11.99 -1.34 12.98 -1 14 C-1 13.01 -1 12.02 -1 11 C-1.33 11 -1.66 11 -2 11 Z M0 14 C0.66 15.32 1.32 16.64 2 18 C2 17.01 2 16.02 2 15 C1.34 14.67 0.68 14.34 0 14 Z M3 18 C3.33 18.99 3.66 19.98 4 21 C4 20.01 4 19.02 4 18 C3.67 18 3.34 18 3 18 Z " fill="#286782" transform="translate(129,32)"/>
<path d="M0 0 C2.0625 0.4375 2.0625 0.4375 4 1 C3.625 3.4375 3.625 3.4375 3 6 C2.01 6.495 2.01 6.495 1 7 C1.33 8.32 1.66 9.64 2 11 C1.34 11 0.68 11 0 11 C0.10699219 11.64066406 0.21398437 12.28132813 0.32421875 12.94140625 C1.15747165 18.95337074 0.86575319 22.48077163 -2 28 C-3.58711898 32.29455725 -4.58298828 36.56068846 -5.4375 41.046875 C-6 43 -6 43 -8 45 C-9.875 45.703125 -9.875 45.703125 -12 46.25 C-12.70125 46.44078125 -13.4025 46.6315625 -14.125 46.828125 C-14.74375 46.88484375 -15.3625 46.9415625 -16 47 C-16.66 46.34 -17.32 45.68 -18 45 C-8.34517922 18.57120616 -8.34517922 18.57120616 -3.9375 7.875 C-3.65124756 7.17834229 -3.36499512 6.48168457 -3.07006836 5.76391602 C-1.13576422 1.13576422 -1.13576422 1.13576422 0 0 Z " fill="#75CFF5" transform="translate(53,55)"/>
<path d="M0 0 C-0.6171875 1.890625 -0.6171875 1.890625 -2 4 C-4.8203125 5.046875 -4.8203125 5.046875 -8.125 5.75 C-9.76855469 6.11351562 -9.76855469 6.11351562 -11.4453125 6.484375 C-12.28835937 6.65453125 -13.13140625 6.8246875 -14 7 C-12.68 7 -11.36 7 -10 7 C-10.24609375 8.890625 -10.24609375 8.890625 -11 11 C-12.84765625 12.046875 -12.84765625 12.046875 -15.0625 12.75 C-15.79597656 12.99234375 -16.52945313 13.2346875 -17.28515625 13.484375 C-18.13400391 13.73960938 -18.13400391 13.73960938 -19 14 C-19 14.99 -19 15.98 -19 17 C-20.29009643 17.50403768 -21.58213789 18.00309926 -22.875 18.5 C-23.59429687 18.7784375 -24.31359375 19.056875 -25.0546875 19.34375 C-27 20 -27 20 -29 20 C-29.33 21.32 -29.66 22.64 -30 24 C-30.66 22.68 -31.32 21.36 -32 20 C-31.34 19.34 -30.68 18.68 -30 18 C-31.32 17.01 -32.64 16.02 -34 15 C-32.68 13.68 -31.36 12.36 -30 11 C-34.29 11.99 -38.58 12.98 -43 14 C-42.34 12.02 -41.68 10.04 -41 8 C-38.23164731 6.77860459 -36.01227863 6.05543694 -33.10546875 5.41015625 C-32.3210994 5.21650986 -31.53673004 5.02286346 -30.72859192 4.823349 C-29.06962822 4.41909836 -27.40757812 4.02733813 -25.74291992 3.6472168 C-23.20060745 3.06549917 -20.67009117 2.44561153 -18.13867188 1.81835938 C-16.52398502 1.43000809 -14.90876476 1.04386659 -13.29296875 0.66015625 C-12.15990547 0.38535179 -12.15990547 0.38535179 -11.00395203 0.10499573 C-7.02425116 -0.79191695 -3.93711348 -1.19951726 0 0 Z M-26 14 C-22 15 -22 15 -22 15 Z " fill="#56B8DD" transform="translate(105,43)"/>
<path d="M0 0 C4.68127911 1.20375748 9.11083189 4.16490549 13 7 C14 9 14 9 13.5625 11.75 C13.65733272 15.02047854 13.65733272 15.02047854 15.7421875 16.65625 C17.18810246 17.70595339 18.65840507 18.72297476 20.15234375 19.703125 C22 21 22 21 23 23 C23.04022391 25.3329866 23.04320247 27.66706666 23 30 C21.02 29.67 19.04 29.34 17 29 C17 28.34 17 27.68 17 27 C15.35 26.34 13.7 25.68 12 25 C12.33 24.01 12.66 23.02 13 22 C14.32 22 15.64 22 17 22 C14.23352293 19.02859871 11.50322987 17.02818571 8 15 C7.34 14.34 6.68 13.68 6 13 C5.34 13 4.68 13 4 13 C4 14.98 4 16.96 4 19 C3.01 19 2.02 19 1 19 C-1.36980013 21.95377498 -1.36980013 21.95377498 -1 26 C-5.75 25.25 -5.75 25.25 -8 23 C-6.68 23.33 -5.36 23.66 -4 24 C-4.185625 23.0925 -4.37125 22.185 -4.5625 21.25 C-4.95734621 18.31685676 -4.94691572 16.7355343 -4 14 C-3.34 14 -2.68 14 -2 14 C-2.33 13.01 -2.66 12.02 -3 11 C-3.203125 8.80859375 -3.203125 8.80859375 -3.25 6.4375 C-3.27578125 5.65246094 -3.3015625 4.86742188 -3.328125 4.05859375 C-3.21984375 3.37925781 -3.1115625 2.69992188 -3 2 C-2.01 1.34 -1.02 0.68 0 0 Z " fill="#1E5468" transform="translate(77,113)"/>
<path d="M0 0 C-1.83491188 4.74018901 -3.91941459 9.36413251 -6 14 C-5.34 14 -4.68 14 -4 14 C-3.67 12.68 -3.34 11.36 -3 10 C-2.34 10.33 -1.68 10.66 -1 11 C-1.4752588 12.64696604 -1.95531891 14.29254728 -2.4375 15.9375 C-2.70433594 16.85402344 -2.97117187 17.77054688 -3.24609375 18.71484375 C-4 21 -4 21 -5 22 C-5.07148199 23.35243917 -5.08399454 24.70834367 -5.0625 26.0625 C-5.041875 27.361875 -5.02125 28.66125 -5 30 C-4.34 30 -3.68 30 -3 30 C-3.1875 32.875 -3.1875 32.875 -4 36 C-6.56216697 37.4945974 -8.78375871 37.95976906 -11.6875 38.5 C-14.18192915 38.82079493 -14.18192915 38.82079493 -16 41 C-15.36982209 37.60067495 -14.54121726 34.35795263 -13.5 31.0625 C-11.29072768 24.52737602 -11.29072768 24.52737602 -11.5625 17.8125 C-11.706875 17.214375 -11.85125 16.61625 -12 16 C-11.34 15.01 -10.68 14.02 -10 13 C-9.58483202 10.98341096 -9.58483202 10.98341096 -9.4375 8.875 C-9 5 -9 5 -8 4 C-8.66 3.34 -9.32 2.68 -10 2 C-6.38026598 0.68373308 -3.90432869 0 0 0 Z " fill="#65C8F5" transform="translate(64,52)"/>
<path d="M0 0 C0.33 0.99 0.66 1.98 1 3 C0.01 4.485 0.01 4.485 -1 6 C-0.34 6.33 0.32 6.66 1 7 C0.43410156 7.72445312 -0.13179687 8.44890625 -0.71484375 9.1953125 C-1.44832031 10.16210938 -2.18179688 11.12890625 -2.9375 12.125 C-4.03384766 13.55199219 -4.03384766 13.55199219 -5.15234375 15.0078125 C-7.08140316 18.13182837 -7.66130872 20.37654094 -8 24 C-7.34 24 -6.68 24 -6 24 C-6 23.34 -6 22.68 -6 22 C-5.34 22 -4.68 22 -4 22 C-4.309375 22.5775 -4.61875 23.155 -4.9375 23.75 C-5.92583364 25.84294184 -6.5168613 27.74535275 -7 30 C-5.35 29.34 -3.7 28.68 -2 28 C-1.34 28.66 -0.68 29.32 0 30 C-1.423125 30.4640625 -1.423125 30.4640625 -2.875 30.9375 C-5.86080408 31.87394742 -5.86080408 31.87394742 -8 33 C-7.67 33.66 -7.34 34.32 -7 35 C-7.99 35.495 -7.99 35.495 -9 36 C-8.01 36.99 -7.02 37.98 -6 39 C-6 38.34 -6 37.68 -6 37 C-5.34 37 -4.68 37 -4 37 C-4.625 39.3125 -4.625 39.3125 -6 42 C-9.0625 43.6875 -9.0625 43.6875 -12 45 C-12.33 45.66 -12.66 46.32 -13 47 C-13.66 46.67 -14.32 46.34 -15 46 C-15.625 43.9375 -15.625 43.9375 -16 42 C-15.01 41.34 -14.02 40.68 -13 40 C-12.67 39.01 -12.34 38.02 -12 37 C-12.66 36.67 -13.32 36.34 -14 36 C-14 35.34 -14 34.68 -14 34 C-13.01 33.505 -13.01 33.505 -12 33 C-12.37898437 32.43796875 -12.75796875 31.8759375 -13.1484375 31.296875 C-14 29 -14 29 -13.1015625 26.640625 C-12.61429688 25.85171875 -12.12703125 25.0628125 -11.625 24.25 C-11.14289063 23.45078125 -10.66078125 22.6515625 -10.1640625 21.828125 C-9.58785156 20.92320313 -9.58785156 20.92320313 -9 20 C-9.66 20 -10.32 20 -11 20 C-11.4375 17.5 -11.4375 17.5 -11 14 C-9.42559367 11.81404741 -7.67697515 9.92297582 -5.82421875 7.96875 C-3.52052252 5.48253394 -1.79261932 2.86819091 0 0 Z " fill="#54A4BC" transform="translate(160,90)"/>
<path d="M0 0 C0 1.65 0 3.3 0 5 C-0.99 5.33 -1.98 5.66 -3 6 C-3.2236068 8.9254644 -3.2236068 8.9254644 -2 11 C-4.62450086 11.22119939 -7.24870486 11.42746669 -9.875 11.625 C-10.62136719 11.68945312 -11.36773437 11.75390625 -12.13671875 11.8203125 C-14.0870047 11.96087365 -16.04469467 11.98759849 -18 12 C-18.66 11.34 -19.32 10.68 -20 10 C-20 9.01 -20 8.02 -20 7 C-23.96 7 -27.92 7 -32 7 C-31.01 6.01 -30.02 5.02 -29 4 C-28.67 3.01 -28.34 2.02 -28 1 C-23.52084435 0.83303633 -19.0416737 0.66647858 -14.5625 0.5 C-13.28310547 0.45230469 -12.00371094 0.40460937 -10.68554688 0.35546875 C-9.47060547 0.31035156 -8.25566406 0.26523437 -7.00390625 0.21875 C-5.87799072 0.17685547 -4.7520752 0.13496094 -3.59204102 0.09179688 C-1 0 -1 0 0 0 Z " fill="#074A66" transform="translate(127,34)"/>
<path d="M0 0 C1.75 1.22265625 1.75 1.22265625 2.5 3.3515625 C2.62375 4.27775391 2.62375 4.27775391 2.75 5.22265625 C2.08355469 5.57457031 1.41710937 5.92648438 0.73046875 6.2890625 C-6.13823145 9.96838023 -12.72898885 13.95940332 -19.25 18.22265625 C-20.39630236 14.78374917 -20.07148812 14.01574282 -18.875 10.72265625 C-18.59914062 9.94921875 -18.32328125 9.17578125 -18.0390625 8.37890625 C-17.64847656 7.3115625 -17.64847656 7.3115625 -17.25 6.22265625 C-16.92 5.23265625 -16.59 4.24265625 -16.25 3.22265625 C-10.84149708 -1.38905829 -6.62633218 -2.47337052 0 0 Z " fill="#94D7F7" transform="translate(180.25,118.77734375)"/>
<path d="M0 0 C3.79538213 4.15841869 5.47879019 8.26770163 7.25 13.5 C7.518125 14.24636719 7.78625 14.99273437 8.0625 15.76171875 C10.61001157 23.10531077 10.61001157 23.10531077 10 27 C8.72265625 29.45703125 8.72265625 29.45703125 7.0625 31.8125 C6.51722656 32.60269531 5.97195312 33.39289063 5.41015625 34.20703125 C4.94480469 34.79871094 4.47945312 35.39039063 4 36 C3.67 36 3.34 36 3 36 C3.0825 35.21625 3.165 34.4325 3.25 33.625 C3.01099438 30.15941846 2.38222776 28.1540064 1.0625 25 C-2.8289701 15.68826798 -2.8289701 15.68826798 -0.5 10 C-0.21511719 9.3296875 0.06976563 8.659375 0.36328125 7.96875 C1.28661904 5.11376691 0.78165894 2.84239613 0 0 Z " fill="#6BBFE3" transform="translate(169,54)"/>
<path d="M0 0 C0.99 0.33 1.98 0.66 3 1 C4.53016671 4.65024998 4.27993571 8.85446988 4.421875 12.765625 C4.44977112 13.51785339 4.47766724 14.27008179 4.50640869 15.04510498 C4.56269356 16.63528627 4.61632401 18.22556344 4.66748047 19.81591797 C4.74926596 22.22834799 4.85299551 24.63922283 4.95703125 27.05078125 C5.00918074 28.60151709 5.06000403 30.15229821 5.109375 31.703125 C5.14359558 32.41486877 5.17781616 33.12661255 5.21307373 33.85992432 C5.34549685 39.20684062 4.10773269 43.08563306 2 48 C-0.414397 45.585603 -0.26650398 44.96410494 -0.3347168 41.65795898 C-0.35781418 40.7604039 -0.38091156 39.86284882 -0.40470886 38.93809509 C-0.41939713 37.96723465 -0.43408539 36.99637421 -0.44921875 35.99609375 C-0.47095657 35.0024733 -0.4926944 34.00885284 -0.51509094 32.98512268 C-0.55904668 30.88283307 -0.59823759 28.7804393 -0.63305664 26.67797852 C-0.6873388 23.44709475 -0.75749049 20.21684715 -0.83007812 16.98632812 C-0.87072967 14.94793516 -0.91047413 12.90952386 -0.94921875 10.87109375 C-0.96997971 9.89820908 -0.99074066 8.9253244 -1.01213074 7.92295837 C-1.02577164 7.02855545 -1.03941254 6.13415253 -1.0534668 5.21264648 C-1.06741989 4.42147934 -1.08137299 3.63031219 -1.0957489 2.81517029 C-1 1 -1 1 0 0 Z " fill="#45A7D0" transform="translate(64,80)"/>
<path d="M0 0 C1.47906892 -0.02689216 2.95827483 -0.04634621 4.4375 -0.0625 C5.26121094 -0.07410156 6.08492187 -0.08570312 6.93359375 -0.09765625 C9 0 9 0 10 1 C10.07313567 3.53049402 10.09247527 6.03304837 10.0625 8.5625 C10.05798828 9.27341797 10.05347656 9.98433594 10.04882812 10.71679688 C10.03700864 12.47790013 10.01907263 14.23896036 10 16 C6.37 16 2.74 16 -1 16 C-1.94056912 9.88630069 -2.10399913 5.81693878 0 0 Z " fill="#293D4C" transform="translate(98,102)"/>
<path d="M0 0 C2.00993705 3.01490557 2.72623341 5.2149927 3.625 8.6875 C3.88539063 9.68136719 4.14578125 10.67523438 4.4140625 11.69921875 C4.60742188 12.45847656 4.80078125 13.21773437 5 14 C4.34 14 3.68 14 3 14 C3.33 14.99 3.66 15.98 4 17 C3.40206327 19.35188447 2.74118205 21.68925595 2 24 C1.34 24 0.68 24 0 24 C0.3403125 25.85625 0.3403125 25.85625 0.6875 27.75 C1.19996052 31.66963045 1.19996052 31.66963045 -0.4375 34.375 C-0.953125 34.91125 -1.46875 35.4475 -2 36 C-2 36.66 -2 37.32 -2 38 C-5 37 -5 37 -6.75 33.6875 C-8 30 -8 30 -7.875 27.75 C-6.47090576 24.94181151 -4.79158693 23.39579347 -2 22 C-2.66 19.36 -3.32 16.72 -4 14 C-3.34 14 -2.68 14 -2 14 C-1.34 9.38 -0.68 4.76 0 0 Z " fill="#53ACD5" transform="translate(167,44)"/>
<path d="M0 0 C2.7710688 2.34591852 3.52059284 4.14776201 4.1875 7.6875 C4.34605469 8.49574219 4.50460938 9.30398437 4.66796875 10.13671875 C4.77753906 10.75160156 4.88710937 11.36648437 5 12 C4.34 10.68 3.68 9.36 3 8 C2.34 9.98 1.68 11.96 1 14 C0.34 14 -0.32 14 -1 14 C-1.0272415 15.41655793 -1.04650467 16.83327045 -1.0625 18.25 C-1.07410156 19.03890625 -1.08570313 19.8278125 -1.09765625 20.640625 C-1.00385306 22.90691002 -0.63241063 24.8288895 0 27 C-1.32 26.67 -2.64 26.34 -4 26 C-4 27.98 -4 29.96 -4 32 C-4.33 31.34 -4.66 30.68 -5 30 C-5.99 30 -6.98 30 -8 30 C-8.75 27.3125 -8.75 27.3125 -9 24 C-7.1875 21.125 -7.1875 21.125 -5 19 C-4.34 19 -3.68 19 -3 19 C-3.22816406 18.48050781 -3.45632812 17.96101563 -3.69140625 17.42578125 C-5.88115584 12.11342909 -6.29196816 9.22992039 -4.125 3.8125 C-3 2 -3 2 0 0 Z " fill="#3894BB" transform="translate(162,32)"/>
<path d="M0 0 C5.08945547 -0.61690369 7.85753059 1.29146231 12 4 C13.32229189 6.64458379 13.09677194 8.67761301 13.0625 11.625 C13.05347656 12.62789062 13.04445313 13.63078125 13.03515625 14.6640625 C13.02355469 15.43492187 13.01195313 16.20578125 13 17 C-6.41043084 6.76870748 -6.41043084 6.76870748 -8 2 C-6.68 2.33 -5.36 2.66 -4 3 C-4 3.66 -4 4.32 -4 5 C-2.68 4.34 -1.36 3.68 0 3 C0 2.01 0 1.02 0 0 Z " fill="#115876" transform="translate(94,144)"/>
<path d="M0 0 C1.25495545 3.76486635 0.5818409 4.44085797 -1 8 C-3.03479808 12.94629107 -4.49449594 17.7560972 -5.47265625 23.01953125 C-6 25 -6 25 -8 28 C-8.165 28.825 -8.33 29.65 -8.5 30.5 C-9 33 -9 33 -11 36 C-10.34274872 39.63384485 -10.34274872 39.63384485 -9 43 C-8.34 43.33 -7.68 43.66 -7 44 C-9.97 44.99 -12.94 45.98 -16 47 C-16.66 46.34 -17.32 45.68 -18 45 C-8.34517922 18.57120616 -8.34517922 18.57120616 -3.9375 7.875 C-3.65124756 7.17834229 -3.36499512 6.48168457 -3.07006836 5.76391602 C-1.13576422 1.13576422 -1.13576422 1.13576422 0 0 Z " fill="#91D0EA" transform="translate(53,55)"/>
<path d="M0 0 C8.25 0 16.5 0 25 0 C26 5 26 5 26 6 C17.42 6 8.84 6 0 6 C0 4.02 0 2.04 0 0 Z " fill="#084B6A" transform="translate(102,25)"/>
<path d="M0 0 C-0.24609375 1.890625 -0.24609375 1.890625 -1 4 C-2.84765625 5.046875 -2.84765625 5.046875 -5.0625 5.75 C-5.79597656 5.99234375 -6.52945313 6.2346875 -7.28515625 6.484375 C-8.13400391 6.73960938 -8.13400391 6.73960938 -9 7 C-9 7.99 -9 8.98 -9 10 C-10.29009643 10.50403768 -11.58213789 11.00309926 -12.875 11.5 C-13.59429687 11.7784375 -14.31359375 12.056875 -15.0546875 12.34375 C-17 13 -17 13 -19 13 C-19.33 14.32 -19.66 15.64 -20 17 C-20.66 15.68 -21.32 14.36 -22 13 C-21.34 12.34 -20.68 11.68 -20 11 C-21.32 10.01 -22.64 9.02 -24 8 C-22.68 6.68 -21.36 5.36 -20 4 C-21.65 4 -23.3 4 -25 4 C-25 3.67 -25 3.34 -25 3 C-18.84765625 2.12109375 -18.84765625 2.12109375 -17 2 C-16.67 2.33 -16.34 2.66 -16 3 C-14.04925541 2.5779781 -12.11336764 2.08646641 -10.1875 1.5625 C-6.53821615 0.57128161 -3.81341364 0 0 0 Z M-16 7 C-12 8 -12 8 -12 8 Z " fill="#45ACD0" transform="translate(95,50)"/>
<path d="M0 0 C0.66 0 1.32 0 2 0 C4.43364956 3.72535587 4.09442029 6.78349158 3.75 11.125 C3.66234375 12.36507812 3.5746875 13.60515625 3.484375 14.8828125 C3 18 3 18 1 20 C1.19890456 22.23344065 1.19890456 22.23344065 1.875 24.625 C2.07867187 25.44226563 2.28234375 26.25953125 2.4921875 27.1015625 C2.65976563 27.72804688 2.82734375 28.35453125 3 29 C2.67 28.34 2.34 27.68 2 27 C1.01 27.33 0.02 27.66 -1 28 C-1.66 27.01 -2.32 26.02 -3 25 C-3.99 25 -4.98 25 -6 25 C-6 22.36 -6 19.72 -6 17 C-4.68 17.33 -3.36 17.66 -2 18 C-2.185625 17.505 -2.37125 17.01 -2.5625 16.5 C-3.20139296 12.84918311 -2.54905291 9.66035276 -2 6 C-1.34 6 -0.68 6 0 6 C0 4.02 0 2.04 0 0 Z " fill="#3FA3CB" transform="translate(163,40)"/>
<path d="M0 0 C3.5 1.25 3.5 1.25 5.5 4.25 C4.51 4.745 4.51 4.745 3.5 5.25 C3.5 7.23 3.5 9.21 3.5 11.25 C4.16 11.25 4.82 11.25 5.5 11.25 C5.17 11.91 4.84 12.57 4.5 13.25 C3.51 13.25 2.52 13.25 1.5 13.25 C1.5 12.59 1.5 11.93 1.5 11.25 C0.96632813 11.07984375 0.43265625 10.9096875 -0.1171875 10.734375 C-6.0171171 8.81536676 -11.76304469 6.60945761 -17.5 4.25 C-17.17 2.93 -16.84 1.61 -16.5 0.25 C-12.44180817 0.90503282 -8.96028718 2.19559121 -5.1875 3.8125 C-4.11886719 4.26753906 -3.05023438 4.72257813 -1.94921875 5.19140625 C-0.73685547 5.71541016 -0.73685547 5.71541016 0.5 6.25 C-0.49 5.59 -1.48 4.93 -2.5 4.25 C-3.49 3.59 -4.48 2.93 -5.5 2.25 C-5.5 1.59 -5.5 0.93 -5.5 0.25 C-3.5 -0.75 -3.5 -0.75 0 0 Z " fill="#256E8B" transform="translate(110.5,125.75)"/>
<path d="M0 0 C5.94 0.66 11.88 1.32 18 2 C17.34 2.66 16.68 3.32 16 4 C15.60235737 5.98821313 15.26224651 7.98944339 15 10 C11.60655461 10.79806324 8.48618686 11.30044404 5 11 C2.22873941 9.1595851 0.34576308 7.05080228 -1 4 C-0.67 2.68 -0.34 1.36 0 0 Z " fill="#24A4DB" transform="translate(76,22)"/>
<path d="M0 0 C0.66 1.32 1.32 2.64 2 4 C4.0962752 6.84878425 6.25179458 9.64548617 8.41796875 12.44140625 C8.94003906 13.28574219 9.46210938 14.13007812 10 15 C9.67 15.99 9.34 16.98 9 18 C6 17 6 17 4.32421875 13.984375 C2.21738328 10.60187841 2.21738328 10.60187841 -1.85546875 10.265625 C-3.29908018 10.23128475 -4.74366499 10.22689864 -6.1875 10.25 C-8.80777063 10.2362453 -11.38115921 10.15387539 -14 10 C-14.33 9.34 -14.66 8.68 -15 8 C-11.83754459 6.9458482 -9.13051782 6.68724328 -5.8125 6.4375 C-2.9353125 6.2209375 -2.9353125 6.2209375 0 6 C-4.95 5.67 -9.9 5.34 -15 5 C-15 4.67 -15 4.34 -15 4 C-10.38 3.67 -5.76 3.34 -1 3 C-4.96 2.67 -8.92 2.34 -13 2 C-13 1.67 -13 1.34 -13 1 C-6.565 0.505 -6.565 0.505 0 0 Z " fill="#20607B" transform="translate(124,38)"/>
<path d="M0 0 C1.79133978 -0.05391993 3.58313899 -0.09275571 5.375 -0.125 C6.37273437 -0.14820312 7.37046875 -0.17140625 8.3984375 -0.1953125 C11 0 11 0 13 2 C12.01 2.33 11.02 2.66 10 3 C10.33 3.66 10.66 4.32 11 5 C10.814375 5.825 10.62875 6.65 10.4375 7.5 C10.2209375 8.7375 10.2209375 8.7375 10 10 C10.66 10.66 11.32 11.32 12 12 C11.67 12.99 11.34 13.98 11 15 C11.99 15.66 12.98 16.32 14 17 C8.70715835 17.34707158 8.70715835 17.34707158 6 17 C4 15.1875 4 15.1875 3 13 C3 12.01 3 11.02 3 10 C1.35 10 -0.3 10 -2 10 C-2 9.67 -2 9.34 -2 9 C-0.35 9 1.3 9 3 9 C2.979375 8.030625 2.95875 7.06125 2.9375 6.0625 C3 3 3 3 4 2 C2.68 1.34 1.36 0.68 0 0 Z " fill="#237A9E" transform="translate(88,23)"/>
<path d="M0 0 C0.99 0.33 1.98 0.66 3 1 C3.20493621 6.22587346 3.14113642 10.14675745 1 15 C1.33 15.99 1.66 16.98 2 18 C1.67 18.99 1.34 19.98 1 21 C-1.64 19.68 -4.28 18.36 -7 17 C-7.40652968 11.57960425 -6.03993514 7.92984325 -4 3 C-3.67 3 -3.34 3 -3 3 C-3 4.65 -3 6.3 -3 8 C-2.01 8 -1.02 8 0 8 C0 5.36 0 2.72 0 0 Z " fill="#18769F" transform="translate(72,117)"/>
<path d="M0 0 C0.66 0.33 1.32 0.66 2 1 C2.3911938 3.06265822 2.50674519 5.09443267 2.65625 7.1875 C2.7696875 7.785625 2.883125 8.38375 3 9 C3.66 9.33 4.32 9.66 5 10 C4.75 13.375 4.75 13.375 4 17 C1.9375 18.4375 1.9375 18.4375 0 19 C0.66666667 16.33333333 1.33333333 13.66666667 2 11 C0.80707586 12.1275521 0.80707586 12.1275521 -0.5234375 14.28515625 C-1.43996094 15.65994141 -1.43996094 15.65994141 -2.375 17.0625 C-2.98085937 17.98160156 -3.58671875 18.90070313 -4.2109375 19.84765625 C-4.80132812 20.55792969 -5.39171875 21.26820312 -6 22 C-6.99 22 -7.98 22 -9 22 C-8.54917531 20.53932801 -8.08906463 19.08151968 -7.625 17.625 C-7.24214844 16.40683594 -7.24214844 16.40683594 -6.8515625 15.1640625 C-6 13 -6 13 -4 11 C-3.66073053 8.66752239 -3.32759934 6.33414529 -3 4 C-1 1 -1 1 0 0 Z " fill="#5FB6DA" transform="translate(168,74)"/>
<path d="M0 0 C-1 3 -1 3 -2 4 C-2.71182865 7.97834078 -2.71182865 7.97834078 -3 12 C-2.01 11.01 -1.02 10.02 0 9 C-0.60990891 12.55780196 -1.5783681 15.6828589 -3 19 C-4.32 18.34 -5.64 17.68 -7 17 C-7 19.64 -7 22.28 -7 25 C-8.65 25 -10.3 25 -12 25 C-11.34 24.67 -10.68 24.34 -10 24 C-10.33 23.34 -10.66 22.68 -11 22 C-11.508582 16.65988903 -10.02669286 12.81223874 -8 8 C-7.74863281 7.3296875 -7.49726562 6.659375 -7.23828125 5.96875 C-6.58222865 4.27481525 -5.7990371 2.63136742 -5 1 C-2 0 -2 0 0 0 Z " fill="#4CC1F2" transform="translate(69,58)"/>
<path d="M0 0 C2.31 0.33 4.62 0.66 7 1 C6.67 1.66 6.34 2.32 6 3 C5.39892972 5.17887977 4.96831631 7.25346954 4.6875 9.5 C3.80638056 12.7040707 2.57305425 13.92726185 0 16 C-2.75 17.25 -2.75 17.25 -5 18 C-4.814375 17.443125 -4.62875 16.88625 -4.4375 16.3125 C-3.81566118 13.95361023 -3.81566118 13.95361023 -4.6875 11.5 C-4.790625 10.675 -4.89375 9.85 -5 9 C-3.0625 6.6875 -3.0625 6.6875 -1 5 C-1.33 4.34 -1.66 3.68 -2 3 C-1.34 2.01 -0.68 1.02 0 0 Z " fill="#2A93BE" transform="translate(139,121)"/>
<path d="M0 0 C2.6875 0.875 2.6875 0.875 5 2 C4.649375 2.61875 4.29875 3.2375 3.9375 3.875 C3.628125 4.57625 3.31875 5.2775 3 6 C3.33 6.66 3.66 7.32 4 8 C2.02 8.99 2.02 8.99 0 10 C1.19899698 13.0831351 2.47700477 16.06279492 4 19 C3.01 19 2.02 19 1 19 C-1.36980013 21.95377498 -1.36980013 21.95377498 -1 26 C-5.75 25.25 -5.75 25.25 -8 23 C-6.68 23.33 -5.36 23.66 -4 24 C-4.185625 23.0925 -4.37125 22.185 -4.5625 21.25 C-4.95734621 18.31685676 -4.94691572 16.7355343 -4 14 C-3.34 14 -2.68 14 -2 14 C-2.33 13.01 -2.66 12.02 -3 11 C-3.203125 8.80859375 -3.203125 8.80859375 -3.25 6.4375 C-3.27578125 5.65246094 -3.3015625 4.86742188 -3.328125 4.05859375 C-3.21984375 3.37925781 -3.1115625 2.69992188 -3 2 C-2.01 1.34 -1.02 0.68 0 0 Z " fill="#227291" transform="translate(77,113)"/>
<path d="M0 0 C1.01771484 0.05220703 2.03542969 0.10441406 3.08398438 0.15820312 C5.57720369 0.28696093 8.06992633 0.4218802 10.5625 0.5625 C10.5625 1.5525 10.5625 2.5425 10.5625 3.5625 C10.8925 4.2225 11.2225 4.8825 11.5625 5.5625 C8.93799914 5.78369939 6.31379514 5.98996669 3.6875 6.1875 C2.94113281 6.25195312 2.19476563 6.31640625 1.42578125 6.3828125 C-0.5245047 6.52337365 -2.48219467 6.55009849 -4.4375 6.5625 C-5.0975 5.9025 -5.7575 5.2425 -6.4375 4.5625 C-6.4375 3.5725 -6.4375 2.5825 -6.4375 1.5625 C-10.3975 1.5625 -14.3575 1.5625 -18.4375 1.5625 C-18.4375 1.2325 -18.4375 0.9025 -18.4375 0.5625 C-12.21495217 -0.61568227 -6.30331791 -0.35679158 0 0 Z " fill="#1B536A" transform="translate(113.4375,39.4375)"/>
<path d="M0 0 C-0.47265625 1.85546875 -0.47265625 1.85546875 -2 4 C-4.72594103 5.14936195 -7.54785218 5.71357217 -10.4375 6.3125 C-11.21416016 6.49361328 -11.99082031 6.67472656 -12.79101562 6.86132812 C-18.57498302 8.14167233 -18.57498302 8.14167233 -22 7 C-21.01 6.01 -20.02 5.02 -19 4 C-19.66 3.67 -20.32 3.34 -21 3 C-18.44048255 2.29921555 -15.87840298 1.61414804 -13.3125 0.9375 C-12.2306543 0.63875977 -12.2306543 0.63875977 -11.12695312 0.33398438 C-7.07613527 -0.72033808 -4.1176542 -1.29133534 0 0 Z " fill="#3287A8" transform="translate(105,43)"/>
<path d="M0 0 C0 1.65 0 3.3 0 5 C-0.99 5.33 -1.98 5.66 -3 6 C-3 7.32 -3 8.64 -3 10 C-1.68 10.33 -0.36 10.66 1 11 C-3.95 13.97 -3.95 13.97 -9 17 C-10.14630236 13.56109292 -9.82148812 12.79308657 -8.625 9.5 C-8.34914062 8.7265625 -8.07328125 7.953125 -7.7890625 7.15625 C-7.52867187 6.4446875 -7.26828125 5.733125 -7 5 C-6.67 4.01 -6.34 3.02 -6 2 C-3.85412616 0.684787 -2.52986895 0 0 0 Z " fill="#83CCEB" transform="translate(170,120)"/>
<path d="M0 0 C1.37562854 1.28965176 2.70766393 2.62689293 4 4 C4 4.66 4 5.32 4 6 C4.99 6.33 5.98 6.66 7 7 C8.203125 8.5234375 8.203125 8.5234375 9.25 10.375 C9.78367188 11.28378906 9.78367188 11.28378906 10.328125 12.2109375 C11 14 11 14 10 17 C8.68 17 7.36 17 6 17 C4.40234375 14.953125 4.40234375 14.953125 2.9375 12.25 C1.13228493 8.97475568 -0.6840417 5.94133576 -3 3 C-2.67 2.34 -2.34 1.68 -2 1 C-1.34 1.33 -0.68 1.66 0 2 C0 1.34 0 0.68 0 0 Z " fill="#2D7F9D" transform="translate(144,51)"/>
<path d="M0 0 C1.65 0.33 3.3 0.66 5 1 C5.33 2.65 5.66 4.3 6 6 C5.4121875 6.06058594 4.824375 6.12117188 4.21875 6.18359375 C0.31777592 7.61898738 -1.11305521 11.43547356 -3.21875 14.84765625 C-4.10046875 15.91306641 -4.10046875 15.91306641 -5 17 C-6.32 17 -7.64 17 -9 17 C-8.61634504 14.3144153 -8.20457784 13.19046902 -6.1875 11.3125 C-3.06912555 8.01593273 -1.67617786 4.17261296 0 0 Z " fill="#54A8CC" transform="translate(159,81)"/>
<path d="M0 0 C2.375 -0.1875 2.375 -0.1875 5 0 C7.28062828 3.42094242 7.21925007 4.68187222 7.125 8.6875 C7.10695313 9.68136719 7.08890625 10.67523438 7.0703125 11.69921875 C7.03550781 12.83810547 7.03550781 12.83810547 7 14 C3.535 12.02 3.535 12.02 0 10 C0.66 9.67 1.32 9.34 2 9 C1.65213292 7.02463255 1.65213292 7.02463255 1 5 C0.34 4.67 -0.32 4.34 -1 4 C-0.67 2.68 -0.34 1.36 0 0 Z " fill="#155E7F" transform="translate(100,147)"/>
<path d="M0 0 C5.4367976 0.55852667 9.9183367 1.93957617 14.9375 4.0625 C15.62134766 4.34416016 16.30519531 4.62582031 17.00976562 4.91601562 C18.67613946 5.6035405 20.33850727 6.30076175 22 7 C21.360625 7.12375 20.72125 7.2475 20.0625 7.375 C19.381875 7.58125 18.70125 7.7875 18 8 C17.67 8.66 17.34 9.32 17 10 C15.58208592 9.54554036 14.16571954 9.08625056 12.75 8.625 C11.96109375 8.36976563 11.1721875 8.11453125 10.359375 7.8515625 C8.13372042 7.04826333 6.09068328 6.10288338 4 5 C4 4.34 4 3.68 4 3 C3.34 3 2.68 3 2 3 C2 2.34 2 1.68 2 1 C1.34 0.67 0.68 0.34 0 0 Z " fill="#23759F" transform="translate(112,134)"/>
<path d="M0 0 C0.66 0 1.32 0 2 0 C2 0.99 2 1.98 2 3 C1.34 3 0.68 3 0 3 C-0.12375 4.19625 -0.2475 5.3925 -0.375 6.625 C-0.96243952 11.29142095 -1.57918192 15.57918192 -5 19 C-5 19.66 -5 20.32 -5 21 C-2.69 21 -0.38 21 2 21 C-0.25179309 22.25099616 -2.07754828 23.0147711 -4.625 23.5 C-7.17526091 23.81108239 -7.17526091 23.81108239 -9 26 C-8.37405616 22.61749581 -7.54644499 19.4003728 -6.5 16.125 C-5.53965814 13.04639211 -4.83790839 10.2108588 -4.5625 7 C-4 4 -4 4 -1.9375 2.5625 C-0.9784375 2.2840625 -0.9784375 2.2840625 0 2 C0 1.34 0 0.68 0 0 Z " fill="#63C0EA" transform="translate(57,67)"/>
<path d="M0 0 C0 0.66 0 1.32 0 2 C0.66 2.33 1.32 2.66 2 3 C1.01 3.495 1.01 3.495 0 4 C0.99 4.99 1.98 5.98 3 7 C3 6.34 3 5.68 3 5 C3.66 5 4.32 5 5 5 C4.375 7.3125 4.375 7.3125 3 10 C-0.0625 11.6875 -0.0625 11.6875 -3 13 C-3.33 13.66 -3.66 14.32 -4 15 C-4.66 14.67 -5.32 14.34 -6 14 C-6.625 11.9375 -6.625 11.9375 -7 10 C-6.01 9.34 -5.02 8.68 -4 8 C-3.67 7.01 -3.34 6.02 -3 5 C-3.66 4.67 -4.32 4.34 -5 4 C-5 3.34 -5 2.68 -5 2 C-2 0 -2 0 0 0 Z " fill="#4EA7CD" transform="translate(151,122)"/>
<path d="M0 0 C0.99 0 1.98 0 3 0 C4.36621094 1.42114258 4.36621094 1.42114258 5.734375 3.39453125 C6.47107422 4.45704102 6.47107422 4.45704102 7.22265625 5.54101562 C7.72667969 6.29060547 8.23070312 7.04019531 8.75 7.8125 C9.26949219 8.55048828 9.78898438 9.28847656 10.32421875 10.04882812 C10.81019531 10.76103516 11.29617187 11.47324219 11.796875 12.20703125 C12.24385742 12.8616333 12.69083984 13.51623535 13.15136719 14.19067383 C14 16 14 16 13 19 C9.24169267 17.51492933 7.58763253 15.47928611 5.3125 12.1875 C4.40951172 10.90939453 4.40951172 10.90939453 3.48828125 9.60546875 C1.98864622 6.98012344 1.45748833 4.96110576 1 2 C0.67 1.34 0.34 0.68 0 0 Z " fill="#2E7691" transform="translate(130,43)"/>
<path d="M0 0 C0.66 0.66 1.32 1.32 2 2 C2.99 1.67 3.98 1.34 5 1 C5.41846009 2.57750424 5.80896389 4.16244248 6.1875 5.75 C6.40792969 6.63171875 6.62835938 7.5134375 6.85546875 8.421875 C7 11 7 11 5.67578125 13.328125 C4 15 4 15 2 15 C1.34 15.66 0.68 16.32 0 17 C0 11.39 0 5.78 0 0 Z " fill="#4489A7" transform="translate(72,100)"/>
<path d="M0 0 C0.66 0 1.32 0 2 0 C4.25222907 3.3783436 4.20620737 4.27608807 4.01171875 8.19140625 C3.96466797 9.21943359 3.91761719 10.24746094 3.86914062 11.30664062 C3.80919922 12.38107422 3.74925781 13.45550781 3.6875 14.5625 C3.63916016 15.60986328 3.59082031 16.65722656 3.54101562 17.73632812 C3.22455254 24.18175975 2.71300168 30.58656334 2 37 C1.67 37 1.34 37 1 37 C0.67 24.79 0.34 12.58 0 0 Z " fill="#3DB6E8" transform="translate(64,82)"/>
<path d="M0 0 C3.66172475 0.62678171 6.8818995 1.64451846 10.3125 3.0625 C11.19550781 3.42472656 12.07851562 3.78695312 12.98828125 4.16015625 C13.65214844 4.43730469 14.31601563 4.71445313 15 5 C15 8 15 8 14 10 C6.575 7.03 6.575 7.03 -1 4 C-0.67 2.68 -0.34 1.36 0 0 Z " fill="#21607D" transform="translate(94,126)"/>
<path d="M0 0 C3.72470074 1.24156691 4.46661529 2.63249107 6.6875 5.8125 C7.31011719 6.68519531 7.93273437 7.55789062 8.57421875 8.45703125 C10 11 10 11 10 15 C5.41997355 13.82227891 3.5220093 11.60351401 1.0078125 7.81640625 C-0.24583576 5.55692391 -0.84818627 3.58083337 -1 1 C-0.67 0.67 -0.34 0.34 0 0 Z " fill="#226D94" transform="translate(134,38)"/>
<path d="M0 0 C4.29 0 8.58 0 13 0 C12.34 0.66 11.68 1.32 11 2 C10.67 3.32 10.34 4.64 10 6 C6.7 6 3.4 6 0 6 C0 4.02 0 2.04 0 0 Z " fill="#05425D" transform="translate(102,25)"/>
<path d="M0 0 C3.96 0.33 7.92 0.66 12 1 C10 3 10 3 6.375 3.125 C5.26125 3.08375 4.1475 3.0425 3 3 C3.33 4.32 3.66 5.64 4 7 C4.66 7 5.32 7 6 7 C6 7.66 6 8.32 6 9 C8.97 9 11.94 9 15 9 C15 9.33 15 9.66 15 10 C11.60655461 10.79806324 8.48618686 11.30044404 5 11 C2.22873941 9.1595851 0.34576308 7.05080228 -1 4 C-0.67 2.68 -0.34 1.36 0 0 Z " fill="#49B3E1" transform="translate(76,22)"/>
<path d="M0 0 C0.66 0.33 1.32 0.66 2 1 C2 1.66 2 2.32 2 3 C2.7425 3.268125 3.485 3.53625 4.25 3.8125 C6.89061949 4.95276751 8.85552844 6.09380306 11 8 C11 8.66 11 9.32 11 10 C9.296875 10.66796875 9.296875 10.66796875 7 11 C4.640625 9.92578125 4.640625 9.92578125 2.25 8.3125 C1.45078125 7.79300781 0.6515625 7.27351562 -0.171875 6.73828125 C-0.77515625 6.16464844 -1.3784375 5.59101563 -2 5 C-2 3.68 -2 2.36 -2 1 C-1.34 0.67 -0.68 0.34 0 0 Z " fill="#06465E" transform="translate(83,125)"/>
<path d="M0 0 C-0.33 1.32 -0.66 2.64 -1 4 C-2.76774419 4.53122363 -4.53934083 5.04964073 -6.3125 5.5625 C-7.29863281 5.85253906 -8.28476563 6.14257812 -9.30078125 6.44140625 C-12 7 -12 7 -15 6 C-14.34 5.67 -13.68 5.34 -13 5 C-13.99 4.34 -14.98 3.68 -16 3 C-14.08487728 2.49411853 -12.16783078 1.99551609 -10.25 1.5 C-8.64898437 1.08234375 -8.64898437 1.08234375 -7.015625 0.65625 C-4 0 -4 0 0 0 Z " fill="#39859D" transform="translate(95,50)"/>
<path d="M0 0 C1.48484412 0.39595843 2.9628831 0.81750706 4.4375 1.25 C5.26121094 1.48203125 6.08492187 1.7140625 6.93359375 1.953125 C9 3 9 3 9.78515625 5.109375 C9.85605469 5.73328125 9.92695313 6.3571875 10 7 C8.54735962 7.8638129 7.0876837 8.71580454 5.625 9.5625 C4.40683594 10.27599609 4.40683594 10.27599609 3.1640625 11.00390625 C2.44992188 11.33261719 1.73578125 11.66132813 1 12 C0.34 11.67 -0.32 11.34 -1 11 C-1 10.34 -1 9.68 -1 9 C-1.33 8.34 -1.66 7.68 -2 7 C0.31 7 2.62 7 5 7 C3.84315671 4.9004467 3.84315671 4.9004467 2 3 C-0.62625139 2.66574265 -0.62625139 2.66574265 -3 3 C-2.01 2.01 -1.02 1.02 0 0 Z " fill="#9CD3EB" transform="translate(173,117)"/>
<path d="M0 0 C0.66 0.33 1.32 0.66 2 1 C1.67 1.763125 1.34 2.52625 1 3.3125 C-0.17436686 5.99069135 -0.17436686 5.99069135 0 9 C-1.3125 11.04296875 -1.3125 11.04296875 -3 13.1875 C-3.556875 13.90292969 -4.11375 14.61835937 -4.6875 15.35546875 C-5.3371875 16.16951172 -5.3371875 16.16951172 -6 17 C-6.66 16.01 -7.32 15.02 -8 14 C-6.9458101 10.29821821 -5.04025185 7.3412364 -2.875 4.1875 C-2.33617187 3.39730469 -1.79734375 2.60710937 -1.2421875 1.79296875 C-0.83226562 1.20128906 -0.42234375 0.60960938 0 0 Z " fill="#69AECC" transform="translate(169,86)"/>
<path d="M0 0 C2.475 0.99 2.475 0.99 5 2 C5 2.66 5 3.32 5 4 C6.32 4.33 7.64 4.66 9 5 C9 5.66 9 6.32 9 7 C8.01 7 7.02 7 6 7 C5.34 8.32 4.68 9.64 4 11 C3.01 11 2.02 11 1 11 C0.67 9.02 0.34 7.04 0 5 C0.66 5 1.32 5 2 5 C1.34 4.34 0.68 3.68 0 3 C0 2.01 0 1.02 0 0 Z " fill="#094D6C" transform="translate(89,138)"/>
<path d="M0 0 C0.99 0 1.98 0 3 0 C3.144375 1.0725 3.28875 2.145 3.4375 3.25 C3.83827984 6.76778305 3.83827984 6.76778305 4.75 9.0625 C5.15533433 12.20384109 3.51615803 14.33156187 2 17 C-0.44341953 14.55658047 -0.38216772 13.49867143 -0.6875 10.125 C-0.77386719 9.26132813 -0.86023438 8.39765625 -0.94921875 7.5078125 C-0.99791525 5.10295476 -0.68281067 3.28972599 0 1 C0 0.67 0 0.34 0 0 Z " fill="#3FA0C8" transform="translate(155,70)"/>
<path d="M0 0 C0.33 0.66 0.66 1.32 1 2 C-3.12494151 2.05784708 -7.24977944 2.09354407 -11.375 2.125 C-12.550625 2.14175781 -13.72625 2.15851562 -14.9375 2.17578125 C-16.61972656 2.18544922 -16.61972656 2.18544922 -18.3359375 2.1953125 C-19.37282715 2.20578613 -20.4097168 2.21625977 -21.47802734 2.22705078 C-24 2 -24 2 -26 0 C-17.34740011 -0.92048935 -8.62034923 -1.55871095 0 0 Z " fill="#295B6B" transform="translate(125,23)"/>
<path d="M0 0 C2.6931526 2.6931526 2.86841133 4.75510286 3.2421875 8.46875 C2.7993888 13.09671061 -0.00366588 16.57446126 -3 20 C-3.33 20 -3.66 20 -4 20 C-3.979375 19.05125 -3.95875 18.1025 -3.9375 17.125 C-3.77448174 14.09333717 -3.77448174 14.09333717 -5 12 C-3.35 11.34 -1.7 10.68 0 10 C0 6.7 0 3.4 0 0 Z " fill="#8AC0D8" transform="translate(176,70)"/>
<path d="M0 0 C0 0.99 0 1.98 0 3 C-3.4019487 5.09350689 -6.05272412 5.17942163 -10 5 C-10.33 5.99 -10.66 6.98 -11 8 C-11.66 8 -12.32 8 -13 8 C-13.33 9.32 -13.66 10.64 -14 12 C-14.66 12 -15.32 12 -16 12 C-14.25 5.25 -14.25 5.25 -12 3 C-9.97786722 2.38943913 -7.93172022 1.85636005 -5.875 1.375 C-4.77929688 1.11460938 -3.68359375 0.85421875 -2.5546875 0.5859375 C-1.29011719 0.29589844 -1.29011719 0.29589844 0 0 Z " fill="#5CBEE9" transform="translate(74,54)"/>
<path d="M0 0 C0.66 0 1.32 0 2 0 C1.05066101 3.35433109 0.10251165 6.69246505 -1 10 C-3.28515625 10.94921875 -3.28515625 10.94921875 -6.0625 11.6875 C-7.44115234 12.06455078 -7.44115234 12.06455078 -8.84765625 12.44921875 C-9.55792969 12.63097656 -10.26820312 12.81273438 -11 13 C-11 10.69 -11 8.38 -11 6 C-8 8 -8 8 -6 10 C-5.67 8.35 -5.34 6.7 -5 5 C-4.67 5.66 -4.34 6.32 -4 7 C-3.34 7 -2.68 7 -2 7 C-2 6.34 -2 5.68 -2 5 C-1.34 5 -0.68 5 0 5 C0 3.35 0 1.7 0 0 Z " fill="#52B3DB" transform="translate(72,67)"/>
<path d="M0 0 C1.20628008 2.33214148 2.1654738 4.49642139 3 7 C2.67 7.66 2.34 8.32 2 9 C1.34 9 0.68 9 0 9 C-0.33 10.32 -0.66 11.64 -1 13 C-3.50037734 10.82575883 -4.43628586 9.26954202 -5 6 C-3.68 5.01 -2.36 4.02 -1 3 C-1.33 2.34 -1.66 1.68 -2 1 C-1.34 0.67 -0.68 0.34 0 0 Z " fill="#115977" transform="translate(81,117)"/>
<path d="M0 0 C0.33 0.99 0.66 1.98 1 3 C0.01 4.485 0.01 4.485 -1 6 C-0.34 6.33 0.32 6.66 1 7 C-0.4976696 9.49824035 -2.01558218 11.86004673 -4 14 C-6.8125 14.4375 -6.8125 14.4375 -9 14 C-9.33 13.34 -9.66 12.68 -10 12 C-9.278125 11.319375 -8.55625 10.63875 -7.8125 9.9375 C-4.76544307 6.90785482 -2.42792046 3.53782696 0 0 Z " fill="#51A4C1" transform="translate(160,90)"/>
<path d="M0 0 C1.32 0.33 2.64 0.66 4 1 C4.16682272 5.92127034 4.24828052 9.50343896 2 14 C0 12 0 12 -0.1953125 9.1796875 C-0.17210938 8.08914062 -0.14890625 6.99859375 -0.125 5.875 C-0.10695313 4.77929688 -0.08890625 3.68359375 -0.0703125 2.5546875 C-0.04710938 1.71164063 -0.02390625 0.86859375 0 0 Z " fill="#52ACC9" transform="translate(69,91)"/>
<path d="M0 0 C1.875 0.25 1.875 0.25 4 1 C5.91184226 3.97397684 6.22778191 6.25541503 6.125 9.75 C6.10695312 10.54921875 6.08890625 11.3484375 6.0703125 12.171875 C6.03550781 13.07679687 6.03550781 13.07679687 6 14 C5.34 13.67 4.68 13.34 4 13 C3.4375 11.07421875 3.4375 11.07421875 3 8.6875 C2.40250769 5.45997456 1.58344639 2.88319198 0 0 Z M-3 4 C-0.375 4.9375 -0.375 4.9375 2 6 C1.67 6.66 1.34 7.32 1 8 C-1.4375 7.625 -1.4375 7.625 -4 7 C-4.33 6.34 -4.66 5.68 -5 5 C-4.34 4.67 -3.68 4.34 -3 4 Z " fill="#31414E" transform="translate(129,77)"/>
<path d="M0 0 C1.89492187 0.15275391 1.89492187 0.15275391 3.828125 0.30859375 C4.79234375 0.39238281 5.7565625 0.47617188 6.75 0.5625 C7.08 1.5525 7.41 2.5425 7.75 3.5625 C-3.635 3.0675 -3.635 3.0675 -15.25 2.5625 C-9.56626535 -0.27936733 -6.36742382 -0.53061865 0 0 Z " fill="#3B4A56" transform="translate(119.25,71.4375)"/>
<path d="M0 0 C-1.12451727 2.9719385 -2.22293791 5.33440687 -4 8 C-5.32 8 -6.64 8 -8 8 C-8.33 7.01 -8.66 6.02 -9 5 C-8.67 4.67 -8.34 4.34 -8 4 C-8.66 3.34 -9.32 2.68 -10 2 C-6.38026598 0.68373308 -3.90432869 0 0 0 Z " fill="#6AC4EB" transform="translate(64,52)"/>
<path d="M0 0 C2.7710688 2.34591852 3.52059284 4.14776201 4.1875 7.6875 C4.34605469 8.49574219 4.50460938 9.30398437 4.66796875 10.13671875 C4.77753906 10.75160156 4.88710937 11.36648437 5 12 C4.34 10.68 3.68 9.36 3 8 C2.34 8 1.68 8 1 8 C1 7.01 1 6.02 1 5 C-2.11785113 5.64644661 -2.11785113 5.64644661 -3 8 C-3.66 8 -4.32 8 -5 8 C-5.33 8.99 -5.66 9.98 -6 11 C-5.44509362 7.67056175 -4.79000672 4.88389972 -3 2 C-2.01 1.34 -1.02 0.68 0 0 Z " fill="#4B93B0" transform="translate(162,32)"/>
<path d="M0 0 C0.66 0.66 1.32 1.32 2 2 C1 4 0 6 -1 8 C-2.32 8 -3.64 8 -5 8 C-5.33 8.99 -5.66 9.98 -6 11 C-6.99 10.67 -7.98 10.34 -9 10 C-7.625 8 -7.625 8 -6 6 C-5.34 6 -4.68 6 -4 6 C-3.67 4.35 -3.34 2.7 -3 1 C-2.01 0.67 -1.02 0.34 0 0 Z " fill="#51ABD5" transform="translate(150,136)"/>
<path d="M0 0 C2.31 0.33 4.62 0.66 7 1 C6 3 5 5 4 7 C3.34 7 2.68 7 2 7 C1.67 7.66 1.34 8.32 1 9 C0.34 8.67 -0.32 8.34 -1 8 C-1.75 5.625 -1.75 5.625 -2 3 C-1.34 2.01 -0.68 1.02 0 0 Z " fill="#3894B5" transform="translate(139,121)"/>
<path d="M0 0 C1.5 1.375 1.5 1.375 3 3 C3 3.66 3 4.32 3 5 C3.66 5.33 4.32 5.66 5 6 C0.545 7.485 0.545 7.485 -4 9 C-4.66 8.34 -5.32 7.68 -6 7 C-5.34 5.02 -4.68 3.04 -4 1 C-3.67 1 -3.34 1 -3 1 C-2.67 1.99 -2.34 2.98 -2 4 C-1.34 2.68 -0.68 1.36 0 0 Z " fill="#83CDEB" transform="translate(41,93)"/>
<path d="M0 0 C1.17755859 0.39638672 1.17755859 0.39638672 2.37890625 0.80078125 C4.4375 1.6875 4.4375 1.6875 6.4375 3.6875 C4.4375 4.9375 4.4375 4.9375 1.4375 5.6875 C-1.45509203 4.73055226 -4.04645718 3.40405258 -6.5625 1.6875 C-6.8925 1.0275 -7.2225 0.3675 -7.5625 -0.3125 C-4.14059319 -1.4531356 -3.30079769 -1.14739425 0 0 Z " fill="#2D799F" transform="translate(120.5625,130.3125)"/>
<path d="M0 0 C0.66 0.33 1.32 0.66 2 1 C2.38063221 3.3260857 2.71269945 5.66055264 3 8 C3.33 8.66 3.66 9.32 4 10 C3.67 10.99 3.34 11.98 3 13 C1.68 12.34 0.36 11.68 -1 11 C-1 10.01 -1 9.02 -1 8 C-2.65 8 -4.3 8 -6 8 C-6 7.67 -6 7.34 -6 7 C-4.35 7 -2.7 7 -1 7 C-1.020625 6.030625 -1.04125 5.06125 -1.0625 4.0625 C-1 1 -1 1 0 0 Z " fill="#2F86AA" transform="translate(92,25)"/>
<path d="M0 0 C2 1.375 2 1.375 4 3 C4 3.66 4 4.32 4 5 C3.01 5 2.02 5 1 5 C-1.36980013 7.95377498 -1.36980013 7.95377498 -1 12 C-5.75 11.25 -5.75 11.25 -8 9 C-6.68 9.33 -5.36 9.66 -4 10 C-4 8.35 -4 6.7 -4 5 C-3.01 4.67 -2.02 4.34 -1 4 C-0.26676204 1.98491642 -0.26676204 1.98491642 0 0 Z " fill="#1A6283" transform="translate(77,127)"/>
<path d="M0 0 C1.32 0 2.64 0 4 0 C2.54923295 4.11050664 0.65754275 7.53714127 -2 11 C-2.99 11 -3.98 11 -5 11 C-4.54917531 9.53932801 -4.08906463 8.08151968 -3.625 6.625 C-3.36976563 5.81289062 -3.11453125 5.00078125 -2.8515625 4.1640625 C-2 2 -2 2 0 0 Z " fill="#62B0CB" transform="translate(164,85)"/>
<path d="M0 0 C2.3125 0.1875 2.3125 0.1875 5 1 C6.875 3.375 6.875 3.375 8 6 C7.67 6.99 7.34 7.98 7 9 C5.68 9 4.36 9 3 9 C1.35173889 6.03312999 0.55728913 3.34373475 0 0 Z " fill="#308CB2" transform="translate(147,59)"/>
<path d="M0 0 C0.33 0 0.66 0 1 0 C1.85982938 4.47111276 2.34475639 7.04322359 0 11 C0.33 11.66 0.66 12.32 1 13 C0.67 13.66 0.34 14.32 0 15 C-0.99 14.67 -1.98 14.34 -3 14 C-3.40652968 8.57960425 -2.03993514 4.92984325 0 0 Z " fill="#308AAF" transform="translate(68,120)"/>
<path d="M0 0 C3.89985574 4.15984612 4.89169747 7.55084591 6 13 C3.69 13 1.38 13 -1 13 C-0.649375 11.96875 -0.29875 10.9375 0.0625 9.875 C0.99513623 6.0201036 0.92640921 3.79827774 0 0 Z " fill="#67B4D7" transform="translate(169,54)"/>
<path d="M0 0 C2 2.5 2 2.5 4 5 C4.763125 5.86625 5.52625 6.7325 6.3125 7.625 C6.869375 8.40875 7.42625 9.1925 8 10 C7.67 10.99 7.34 11.98 7 13 C4 12 4 12 2.83203125 10.29296875 C2.49558594 9.59816406 2.15914062 8.90335938 1.8125 8.1875 C1.46832031 7.50042969 1.12414062 6.81335937 0.76953125 6.10546875 C0 4 0 4 0 0 Z " fill="#3C738D" transform="translate(126,43)"/>
<path d="M0 0 C4.55384615 -0.36923077 4.55384615 -0.36923077 6.8125 1.5 C7.204375 1.995 7.59625 2.49 8 3 C6.625 4.5 6.625 4.5 5 6 C4.34 6 3.68 6 3 6 C2.67 6.66 2.34 7.32 2 8 C1.01 7.34 0.02 6.68 -1 6 C-0.67 4.02 -0.34 2.04 0 0 Z " fill="#0C5676" transform="translate(94,144)"/>
<path d="M0 0 C0.66 0.33 1.32 0.66 2 1 C2 2.32 2 3.64 2 5 C1.34 5 0.68 5 0 5 C0 6.65 0 8.3 0 10 C-0.66 10 -1.32 10 -2 10 C-2 10.66 -2 11.32 -2 12 C-2.66 12 -3.32 12 -4 12 C-3.5317879 7.22423661 -2.75668002 3.95523655 0 0 Z " fill="#34B5ED" transform="translate(72,62)"/>
<path d="M0 0 C-0.66 1.32 -1.32 2.64 -2 4 C-3.98 4 -5.96 4 -8 4 C-8.33 2.68 -8.66 1.36 -9 0 C-5.67465243 -1.10844919 -3.37817425 -0.84454356 0 0 Z " fill="#275B6D" transform="translate(105,43)"/>
<path d="M0 0 C0.66 1.32 1.32 2.64 2 4 C0.25 7 0.25 7 -2 10 C-3.32 10 -4.64 10 -6 10 C-5.45388137 6.17716957 -3.76181385 4.58920048 -1 2 C-0.67 1.34 -0.34 0.68 0 0 Z " fill="#579BB3" transform="translate(156,88)"/>
<path d="M0 0 C0 0.66 0 1.32 0 2 C-2.26955186 2.22185844 -4.54073755 2.42705515 -6.8125 2.625 C-8.70935547 2.79902344 -8.70935547 2.79902344 -10.64453125 2.9765625 C-14 3 -14 3 -17 1 C-11.2364368 -1.64812363 -6.09067424 -0.8019749 0 0 Z " fill="#31424F" transform="translate(123,90)"/>
<path d="M0 0 C0 1.65 0 3.3 0 5 C-2.31 5 -4.62 5 -7 5 C-7 3.35 -7 1.7 -7 0 C-3.98968256 -0.93423645 -3.13349732 -1.04449911 0 0 Z " fill="#0A5877" transform="translate(128,26)"/>
<path d="M0 0 C4.12751449 0.60698743 7.3321148 2.03810791 11 4 C10.01 4.66 9.02 5.32 8 6 C4.3125 5.125 4.3125 5.125 1 4 C0.67 2.68 0.34 1.36 0 0 Z " fill="#3E7F93" transform="translate(117,125)"/>
<path d="M0 0 C3 0 3 0 4.75 1.0625 C6.70767152 4.09689086 5.70550248 6.60076077 5 10 C3 8.25 3 8.25 1 6 C1 4.68 1 3.36 1 2 C0.34 1.67 -0.32 1.34 -1 1 C-0.67 0.67 -0.34 0.34 0 0 Z " fill="#1D6887" transform="translate(129,32)"/>
<path d="M0 0 C0 0.66 0 1.32 0 2 C-0.99 2.495 -0.99 2.495 -2 3 C-1.979375 3.78375 -1.95875 4.5675 -1.9375 5.375 C-2 8 -2 8 -3 10 C-3.33 11.32 -3.66 12.64 -4 14 C-4.99 10.7 -5.98 7.4 -7 4 C-3.375 0 -3.375 0 0 0 Z " fill="#4795B3" transform="translate(158,68)"/>
<path d="M0 0 C-1 3 -1 3 -4 5 C-4.99 4.67 -5.98 4.34 -7 4 C-6.67 3.34 -6.34 2.68 -6 2 C-8.64 2.33 -11.28 2.66 -14 3 C-9.41201726 -0.05865516 -5.43293781 -0.12634739 0 0 Z " fill="#41A1C4" transform="translate(86,47)"/>
<path d="M0 0 C3.96 0 7.92 0 12 0 C8 2 4 4 0 6 C0 4.02 0 2.04 0 0 Z " fill="#30414E" transform="translate(96,72)"/>
<path d="M0 0 C-0.99 2.97 -1.98 5.94 -3 9 C-3.99 8.67 -4.98 8.34 -6 8 C-6.33 7.01 -6.66 6.02 -7 5 C-2.25 0 -2.25 0 0 0 Z " fill="#57B1D6" transform="translate(157,120)"/>
<path d="M0 0 C1.57035335 2.49409061 2.0274945 3.70443416 1.75 6.6875 C1.5025 7.450625 1.255 8.21375 1 9 C0.01 9.495 0.01 9.495 -1 10 C-2.36118461 7.75804887 -3.06138028 6.52173238 -2.75 3.875 C-2 2 -2 2 0 0 Z " fill="#47A8D1" transform="translate(162,68)"/>
<path d="M0 0 C4.62 0 9.24 0 14 0 C14.33 0.66 14.66 1.32 15 2 C10.38 2.33 5.76 2.66 1 3 C0.67 2.01 0.34 1.02 0 0 Z " fill="#0C4F6D" transform="translate(110,43)"/>
<path d="M0 0 C0.66 0.99 1.32 1.98 2 3 C1.67 3.33 1.34 3.66 1 4 C0.95919217 5.99958364 0.95745644 8.00045254 1 10 C0.01 10.495 0.01 10.495 -1 11 C-1.99 10.01 -2.98 9.02 -4 8 C-1.125 1.125 -1.125 1.125 0 0 Z " fill="#145576" transform="translate(78,131)"/>
<path d="M0 0 C0.66 0.33 1.32 0.66 2 1 C2.33 1.99 2.66 2.98 3 4 C-1.3399491 5.82734699 -3.48187943 6.20483215 -8 5 C-6.71475739 4.13619741 -5.42157581 3.28419631 -4.125 2.4375 C-3.04605469 1.72400391 -3.04605469 1.72400391 -1.9453125 0.99609375 C-1.30335938 0.66738281 -0.66140625 0.33867188 0 0 Z " fill="#2C88AC" transform="translate(136,123)"/>
<path d="M0 0 C4 4.5 4 4.5 4 9 C2.0625 8.375 2.0625 8.375 0 7 C-0.8125 3.9375 -0.8125 3.9375 -1 1 C-0.67 0.67 -0.34 0.34 0 0 Z " fill="#347DA5" transform="translate(139,53)"/>
<path d="M0 0 C1.67542976 0.28604898 3.34385343 0.61781233 5 1 C4.01 3.64 3.02 6.28 2 9 C1.67 8.34 1.34 7.68 1 7 C0.34 7 -0.32 7 -1 7 C-1.04254356 5.00045254 -1.04080783 2.99958364 -1 1 C-0.67 0.67 -0.34 0.34 0 0 Z " fill="#5C9BB6" transform="translate(150,103)"/>
<path d="M0 0 C-0.99 1.485 -0.99 1.485 -2 3 C-5.625 3.6875 -5.625 3.6875 -9 4 C-8.67 2.68 -8.34 1.36 -8 0 C-4.94736336 -0.98120464 -3.05263664 -0.98120464 0 0 Z " fill="#439AB2" transform="translate(87,58)"/>
<path d="M0 0 C2.00993705 3.01490557 2.72623341 5.2149927 3.625 8.6875 C3.88539063 9.68136719 4.14578125 10.67523438 4.4140625 11.69921875 C4.60742188 12.45847656 4.80078125 13.21773437 5 14 C4.34 13.67 3.68 13.34 3 13 C3 12.01 3 11.02 3 10 C2.01 10 1.02 10 0 10 C0 6.7 0 3.4 0 0 Z " fill="#5EA4BF" transform="translate(167,44)"/>
<path d="M0 0 C1.32 0.33 2.64 0.66 4 1 C4 1.66 4 2.32 4 3 C4.598125 3.103125 5.19625 3.20625 5.8125 3.3125 C8.28243264 4.08876455 9.32251235 5.07088921 11 7 C10.01 7.495 10.01 7.495 9 8 C7.08984375 7.109375 7.08984375 7.109375 4.9375 5.75 C4.22464844 5.31171875 3.51179688 4.8734375 2.77734375 4.421875 C1 3 1 3 0 0 Z " fill="#265972" transform="translate(86,146)"/>
<path d="M0 0 C1.65 0.33 3.3 0.66 5 1 C5 2.32 5 3.64 5 5 C4.236875 4.814375 3.47375 4.62875 2.6875 4.4375 C-0.08967375 3.77180827 -0.08967375 3.77180827 -3 5 C-3.66 4.34 -4.32 3.68 -5 3 C-3.865625 2.855625 -2.73125 2.71125 -1.5625 2.5625 C1.80777201 2.38828522 1.80777201 2.38828522 3 1 C2.01 0.67 1.02 0.34 0 0 Z " fill="#3285AA" transform="translate(128,132)"/>
<path d="M0 0 C1.32 0.66 2.64 1.32 4 2 C4 3.65 4 5.3 4 7 C0.535 5.02 0.535 5.02 -3 3 C-2.01 2.01 -1.02 1.02 0 0 Z " fill="#085070" transform="translate(94,134)"/>
<path d="M0 0 C2.31 0 4.62 0 7 0 C3.53258866 2.95749791 0.13126473 5.07848152 -4 7 C-3.67 5.68 -3.34 4.36 -3 3 C-2.01 3.33 -1.02 3.66 0 4 C0 2.68 0 1.36 0 0 Z " fill="#8BC3DD" transform="translate(164,130)"/>
<path d="M0 0 C3.37462715 0.54723683 5.08235 1.0549 8 3 C2.375 5.125 2.375 5.125 -1 4 C-0.67 2.68 -0.34 1.36 0 0 Z " fill="#2A566C" transform="translate(94,126)"/>
<path d="M0 0 C0.33 0 0.66 0 1 0 C1.19551338 1.60320974 1.38111983 3.20762986 1.5625 4.8125 C1.66691406 5.70582031 1.77132812 6.59914063 1.87890625 7.51953125 C2 10 2 10 1 13 C-1.0625 13.6875 -1.0625 13.6875 -3 14 C-2.67 12.35 -2.34 10.7 -2 9 C-1.34 9 -0.68 9 0 9 C-0.33 8.01 -0.66 7.02 -1 6 C-0.72428861 3.99124558 -0.39764263 1.98821313 0 0 Z " fill="#156B91" transform="translate(75,118)"/>
<path d="M0 0 C2.96052484 3.36423277 3.92289822 6.69159287 5 11 C4.01 11.495 4.01 11.495 3 12 C2.29773859 10.75823305 1.61370891 9.50614401 0.9375 8.25 C0.36322266 7.20585938 0.36322266 7.20585938 -0.22265625 6.140625 C-1.1312406 3.63859372 -0.88336837 2.4667645 0 0 Z " fill="#3C96BD" transform="translate(158,71)"/>
<path d="M0 0 C-0.33 0.99 -0.66 1.98 -1 3 C-5.455 3.495 -5.455 3.495 -10 4 C-10 3.34 -10 2.68 -10 2 C-6.38026598 0.68373308 -3.90432869 0 0 0 Z " fill="#44B6E8" transform="translate(80,49)"/>
<path d="M0 0 C0 0.66 0 1.32 0 2 C0.66 2.33 1.32 2.66 2 3 C-0.31 3.33 -2.62 3.66 -5 4 C-5 3.34 -5 2.68 -5 2 C-6.32 1.34 -7.64 0.68 -9 0 C-5.67465243 -1.10844919 -3.37817425 -0.84454356 0 0 Z " fill="#337089" transform="translate(97,45)"/>
<path d="M0 0 C4.28806873 0.47645208 6.26647487 1.65902484 9 5 C9 5.66 9 6.32 9 7 C5.88626628 5.50079488 2.87771795 3.91847864 0 2 C0 1.34 0 0.68 0 0 Z " fill="#1E4C61" transform="translate(78,141)"/>
<path d="M0 0 C3.5 1.25 3.5 1.25 5.5 4.25 C3.19 3.59 0.88 2.93 -1.5 2.25 C-1.83 2.91 -2.16 3.57 -2.5 4.25 C-3.49 3.59 -4.48 2.93 -5.5 2.25 C-5.5 1.59 -5.5 0.93 -5.5 0.25 C-3.5 -0.75 -3.5 -0.75 0 0 Z " fill="#306879" transform="translate(110.5,125.75)"/>
<path d="M0 0 C3.37462715 0.54723683 5.08235 1.0549 8 3 C6.35 3 4.7 3 3 3 C3 3.66 3 4.32 3 5 C0.69 4.34 -1.62 3.68 -4 3 C-2.68 2.67 -1.36 2.34 0 2 C0 1.34 0 0.68 0 0 Z " fill="#347D9E" transform="translate(126,139)"/>
<path d="M0 0 C3.465 1.98 3.465 1.98 7 4 C7 4.99 7 5.98 7 7 C4.08482708 5.92598892 2.22189824 5.22189824 0 3 C0 2.01 0 1.02 0 0 Z " fill="#08455F" transform="translate(82,118)"/>
<path d="M0 0 C0.33 0.66 0.66 1.32 1 2 C3.31 2 5.62 2 8 2 C5.74820691 3.25099616 3.92245172 4.0147711 1.375 4.5 C-1.17526091 4.81108239 -1.17526091 4.81108239 -3 7 C-2.25 2.25 -2.25 2.25 0 0 Z " fill="#76C0DC" transform="translate(51,86)"/>
<path d="M0 0 C1.32 0 2.64 0 4 0 C4 0.99 4 1.98 4 3 C4.99 3.66 5.98 4.32 7 5 C4.36 5 1.72 5 -1 5 C-0.67 3.35 -0.34 1.7 0 0 Z " fill="#1B6784" transform="translate(95,35)"/>
<path d="M0 0 C1.32 0 2.64 0 4 0 C4 1.98 4 3.96 4 6 C2.68 6 1.36 6 0 6 C0 4.02 0 2.04 0 0 Z " fill="#0B4C6B" transform="translate(102,25)"/>
<path d="M0 0 C-0.99 0.495 -0.99 0.495 -2 1 C-2.65555119 3.52733235 -2.65555119 3.52733235 -3 6 C-3.99 6 -4.98 6 -6 6 C-7 3 -7 3 -6 0 C-3.50907189 -1.24546405 -2.58919267 -0.7767578 0 0 Z " fill="#2094C7" transform="translate(94,25)"/>
<path d="M0 0 C1.98 0 3.96 0 6 0 C5.67 1.98 5.34 3.96 5 6 C4.34 6 3.68 6 3 6 C3 5.34 3 4.68 3 4 C2.34 4 1.68 4 1 4 C0.67 2.68 0.34 1.36 0 0 Z " fill="#27B3EB" transform="translate(79,25)"/>
<path d="M0 0 C0.33 0 0.66 0 1 0 C1.06058594 0.81984375 1.12117188 1.6396875 1.18359375 2.484375 C1.26738281 3.56203125 1.35117188 4.6396875 1.4375 5.75 C1.51871094 6.81734375 1.59992188 7.8846875 1.68359375 8.984375 C1.94090773 11.43679962 2.31812218 13.63921291 3 16 C2.34 16.33 1.68 16.66 1 17 C-0.53266582 13.93466836 -0.10276471 10.73245728 -0.0625 7.375 C-0.05798828 6.66859375 -0.05347656 5.9621875 -0.04882812 5.234375 C-0.03703875 3.48954725 -0.01910324 1.744763 0 0 Z " fill="#3B9AC6" transform="translate(64,111)"/>
<path d="M0 0 C1.32 0.66 2.64 1.32 4 2 C-5.375 5.125 -5.375 5.125 -9 4 C-8.67 3.01 -8.34 2.02 -8 1 C-6.8553125 1.309375 -6.8553125 1.309375 -5.6875 1.625 C-2.78114056 2.33391203 -2.78114056 2.33391203 0 0 Z " fill="#62A1BB" transform="translate(156,118)"/>
<path d="M0 0 C0 0.99 0 1.98 0 3 C-2.91708924 4.98362069 -4.12380904 4.9876191 -7.75 4.625 C-8.8225 4.41875 -9.895 4.2125 -11 4 C-7.49461443 2.03698408 -3.86648272 1.04097612 0 0 Z " fill="#60B8DB" transform="translate(74,54)"/>
<path d="M0 0 C1.3410477 0.75733274 2.67269781 1.53132736 4 2.3125 C5.11375 2.95638672 5.11375 2.95638672 6.25 3.61328125 C6.8275 4.07089844 7.405 4.52851563 8 5 C8 5.99 8 6.98 8 8 C7.01 7.67 6.02 7.34 5 7 C5 6.34 5 5.68 5 5 C2.525 4.01 2.525 4.01 0 3 C0 2.01 0 1.02 0 0 Z " fill="#155B77" transform="translate(89,135)"/>
<path d="M0 0 C0.99 0.33 1.98 0.66 3 1 C1.25 6.75 1.25 6.75 -1 9 C-0.979375 8.05125 -0.95875 7.1025 -0.9375 6.125 C-0.77448174 3.09333717 -0.77448174 3.09333717 -2 1 C-1.34 0.67 -0.68 0.34 0 0 Z " fill="#83C7E4" transform="translate(173,81)"/>
<path d="M0 0 C3.96 0.33 7.92 0.66 12 1 C12 1.33 12 1.66 12 2 C8.7 2.33 5.4 2.66 2 3 C1.67 3.99 1.34 4.98 1 6 C0.34 5.34 -0.32 4.68 -1 4 C-0.67 2.68 -0.34 1.36 0 0 Z " fill="#5DADD1" transform="translate(76,22)"/>
<path d="M0 0 C0.66 0 1.32 0 2 0 C2 2.64 2 5.28 2 8 C1.01 8 0.02 8 -1 8 C-1.93065133 5.39417629 -2.14917407 4.35801776 -1.0625 1.75 C-0.711875 1.1725 -0.36125 0.595 0 0 Z " fill="#1680B1" transform="translate(69,127)"/>
<path d="M0 0 C0.66 0.33 1.32 0.66 2 1 C1.75 4.375 1.75 4.375 1 8 C-1.0625 9.4375 -1.0625 9.4375 -3 10 C-2.21302675 6.58978257 -1.12880057 3.31114834 0 0 Z " fill="#72BCDD" transform="translate(171,83)"/>
<path d="M0 0 C1.1875 1.625 1.1875 1.625 2 4 C0.625 7.25 0.625 7.25 -1 10 C-1.66 9.34 -2.32 8.68 -3 8 C-3 7.01 -3 6.02 -3 5 C-2.01 5 -1.02 5 0 5 C0 3.35 0 1.7 0 0 Z " fill="#4D9FC6" transform="translate(158,77)"/>
<path d="M0 0 C1 3 1 3 0 6 C-1.98 6 -3.96 6 -6 6 C-5.01 5.67 -4.02 5.34 -3 5 C-2.6278958 3.67696283 -2.29369827 2.34262065 -2 1 C-1.34 0.67 -0.68 0.34 0 0 Z " fill="#60BFE4" transform="translate(60,82)"/>
<path d="M0 0 C2.35171131 0.59861742 4.6859378 1.26924352 7 2 C7.33 2.66 7.66 3.32 8 4 C3.545 4.495 3.545 4.495 -1 5 C-0.67 3.35 -0.34 1.7 0 0 Z " fill="#4DB7E4" transform="translate(69,58)"/>
<path d="M0 0 C0.66 0 1.32 0 2 0 C2 2.97 2 5.94 2 9 C1.67 8.34 1.34 7.68 1 7 C0.34 7 -0.32 7 -1 7 C-1.04254356 5.00045254 -1.04080783 2.99958364 -1 1 C-0.67 0.67 -0.34 0.34 0 0 Z " fill="#2B97BF" transform="translate(156,55)"/>
<path d="M0 0 C0 1.65 0 3.3 0 5 C-1.65 5 -3.3 5 -5 5 C-5.33 3.68 -5.66 2.36 -6 1 C-1.125 0 -1.125 0 0 0 Z " fill="#0E5574" transform="translate(127,34)"/>
<path d="M0 0 C0.66 0 1.32 0 2 0 C1.649375 0.94875 1.29875 1.8975 0.9375 2.875 C-0.35026777 5.87060172 -0.35026777 5.87060172 1 8 C0.01 8.33 -0.98 8.66 -2 9 C-2.125 5.625 -2.125 5.625 -2 2 C-1.34 1.34 -0.68 0.68 0 0 Z " fill="#8AD6F7" transform="translate(40,91)"/>
<path d="M0 0 C0.66 0 1.32 0 2 0 C2.66 2.31 3.32 4.62 4 7 C3.01 7.66 2.02 8.32 1 9 C0.29925156 5.846632 0 3.27275026 0 0 Z " fill="#359AC9" transform="translate(157,57)"/>
<path d="M0 0 C0.66 0 1.32 0 2 0 C1.34 2.31 0.68 4.62 0 7 C-0.99 7 -1.98 7 -3 7 C-1.125 1.125 -1.125 1.125 0 0 Z " fill="#58C3F7" transform="translate(57,80)"/>
<path d="M0 0 C1.98 0.99 1.98 0.99 4 2 C4 3.98 4 5.96 4 8 C3.01 8.495 3.01 8.495 2 9 C1.855625 8.2575 1.71125 7.515 1.5625 6.75 C1.09812508 4.47972261 0.58136431 2.24240521 0 0 Z " fill="#7AC1DF" transform="translate(172,66)"/>
<path d="M0 0 C0.66 0.33 1.32 0.66 2 1 C1.67 1.99 1.34 2.98 1 4 C-0.98 4 -2.96 4 -5 4 C-5 3.34 -5 2.68 -5 2 C-2.625 0.9375 -2.625 0.9375 0 0 Z " fill="#1383B1" transform="translate(133,127)"/>
<path d="M0 0 C1.32 0.66 2.64 1.32 4 2 C3.67 2.99 3.34 3.98 3 5 C1.68 5 0.36 5 -1 5 C-0.67 3.35 -0.34 1.7 0 0 Z " fill="#1A6783" transform="translate(78,113)"/>
<path d="M0 0 C0.33 0 0.66 0 1 0 C1 1.98 1 3.96 1 6 C1.99 6.33 2.98 6.66 4 7 C2.125 7.625 2.125 7.625 0 8 C-0.66 7.34 -1.32 6.68 -2 6 C-1.34 4.02 -0.68 2.04 0 0 Z " fill="#89B8C7" transform="translate(37,94)"/>
<path d="M0 0 C0.99 0.99 1.98 1.98 3 3 C2.67 3.99 2.34 4.98 2 6 C0.68 6 -0.64 6 -2 6 C-2 5.34 -2 4.68 -2 4 C-1.34 4 -0.68 4 0 4 C0 2.68 0 1.36 0 0 Z " fill="#45A0B3" transform="translate(152,62)"/>
</svg>
